<svg width="190" height="89" viewBox="0 0 190 89" fill="none" xmlns="http://www.w3.org/2000/svg">
<path d="M27.4088 54.113C27.4088 54.113 26.8587 59.0499 26.8587 59.7859C26.8587 60.5218 19.3773 70.2292 19.3773 70.2292L21.1376 70.7987C21.1376 70.7987 29.0899 66.3655 29.2791 65.7566C29.552 64.8805 30.6698 62.055 31.3607 60.3334C31.5246 59.9231 31.5618 59.4735 31.4678 59.0421C31.3737 58.6106 31.1526 58.2168 30.8326 57.911L29.7192 56.8421L30.991 54.3627C31.0126 54.3204 31.0227 54.2732 31.0202 54.2258C31.0178 54.1785 31.0029 54.1326 30.9771 54.0927C30.9513 54.0528 30.9154 54.0203 30.8731 53.9986C30.8307 53.9768 30.7834 53.9664 30.7358 53.9685L27.4088 54.113Z" fill="#888787" stroke="#878686" stroke-width="0.352759" stroke-miterlimit="10"/>
<path d="M42.0415 53.5523L6.35522 57.0436V59.5712L41.6014 56.4917L41.9667 54.3496L42.0415 53.5523Z" fill="#5D5D5D"/>
<path d="M100.74 61.249L54.0294 65.0557C52.7666 65.148 51.5172 64.7492 50.5439 63.9431L42.9129 57.6306C42.2251 57.0639 41.6713 56.3531 41.291 55.549C40.9106 54.7449 40.7131 53.8672 40.7125 52.9785V52.7507L136.549 34.6808C136.549 34.6808 181.108 33.1476 184.518 36.3235C186.978 38.6145 188.409 52.4002 189.016 59.8866C189.065 60.5184 188.988 61.1535 188.789 61.7556C188.591 62.3578 188.275 62.915 187.86 63.3956C187.446 63.8761 186.939 64.2705 186.371 64.5561C185.803 64.8417 185.184 65.013 184.549 65.0601L152.19 67.3774C150.751 67.4807 149.311 67.1979 148.02 66.5583C146.729 65.9188 145.634 64.946 144.849 63.7415L143.04 60.9643L100.74 61.249Z" fill="#888787"/>
<path d="M100.74 61.249L54.0294 65.0557C52.7666 65.148 51.5172 64.7492 50.5439 63.9431L42.9129 57.6306C42.2251 57.0639 41.6713 56.3531 41.291 55.549C40.9106 54.7449 40.7131 53.8672 40.7125 52.9785V52.7507L136.549 34.6808C136.549 34.6808 181.108 33.1476 184.518 36.3235C186.978 38.6145 188.409 52.4002 189.016 59.8866C189.065 60.5184 188.988 61.1535 188.789 61.7556C188.591 62.3578 188.275 62.915 187.86 63.3956C187.446 63.8761 186.94 64.2705 186.371 64.5561C185.803 64.8417 185.184 65.013 184.549 65.0601L152.19 67.3774C150.751 67.4807 149.311 67.1979 148.02 66.5583C146.729 65.9188 145.634 64.946 144.849 63.7415L143.04 60.9643L100.74 61.249" stroke="#878686" stroke-width="0.352759" stroke-miterlimit="10"/>
<path d="M42.4244 54.7964L138.604 47.3494C139.999 47.244 141.397 47.4895 142.671 48.0635L148.515 50.6918C149.035 50.9271 149.603 51.0392 150.174 51.0195C150.746 50.9997 151.304 50.8486 151.807 50.5779L154.051 49.3732C154.223 49.2811 154.367 49.1467 154.471 48.9829C154.576 48.8191 154.636 48.6314 154.646 48.4378C154.656 48.2442 154.616 48.0513 154.53 47.8776C154.443 47.7039 154.313 47.5552 154.153 47.4458L136.989 35.7978C136.556 35.5031 136.069 35.2964 135.555 35.1896C135.042 35.0829 134.512 35.0782 133.997 35.1758L40.7213 52.5667V53.5348C40.8058 53.9135 41.0244 54.2494 41.3371 54.481C41.6498 54.7126 42.0357 54.8246 42.4244 54.7964Z" fill="#434242" stroke="#434242" stroke-width="0.352759" stroke-miterlimit="10"/>
<path d="M88.5054 72.2443H87.26C87.26 72.2443 90.411 53.9553 96.1321 48.7687C100.894 44.4582 118.092 45.4526 123.738 45.9082C125.403 46.0413 126.971 46.7405 128.179 47.8882C130.938 50.5166 135.313 56.7239 138.53 71.1053L136.549 71.1798C136.549 71.1798 133.834 51.2481 112.195 51.3927C90.5562 51.5373 88.5054 72.2443 88.5054 72.2443Z" fill="#202020"/>
<path d="M114.065 89C123.525 89 131.193 81.3668 131.193 71.9508C131.193 62.5348 123.525 54.9016 114.065 54.9016C104.606 54.9016 96.9374 62.5348 96.9374 71.9508C96.9374 81.3668 104.606 89 114.065 89Z" fill="#202020"/>
<path d="M113.995 82.6482C119.767 82.6482 124.447 77.9902 124.447 72.2443C124.447 66.4984 119.767 61.8404 113.995 61.8404C108.222 61.8404 103.543 66.4984 103.543 72.2443C103.543 77.9902 108.222 82.6482 113.995 82.6482Z" fill="#C9C8C8"/>
<path d="M114.158 73.2255C114.977 73.2255 115.641 72.5646 115.641 71.7493C115.641 70.934 114.977 70.273 114.158 70.273C113.339 70.273 112.675 70.934 112.675 71.7493C112.675 72.5646 113.339 73.2255 114.158 73.2255Z" fill="#555555"/>
<path d="M112.226 65.5463C112.688 65.5463 113.062 65.1737 113.062 64.714C113.062 64.2543 112.688 63.8817 112.226 63.8817C111.764 63.8817 111.39 64.2543 111.39 64.714C111.39 65.1737 111.764 65.5463 112.226 65.5463Z" fill="#3E3E3E"/>
<path d="M109.691 66.8605C110.153 66.8605 110.527 66.4879 110.527 66.0282C110.527 65.5686 110.153 65.1959 109.691 65.1959C109.229 65.1959 108.855 65.5686 108.855 66.0282C108.855 66.4879 109.229 66.8605 109.691 66.8605Z" fill="#3E3E3E"/>
<path d="M107.746 68.8668C108.208 68.8668 108.582 68.4942 108.582 68.0345C108.582 67.5748 108.208 67.2022 107.746 67.2022C107.284 67.2022 106.91 67.5748 106.91 68.0345C106.91 68.4942 107.284 68.8668 107.746 68.8668Z" fill="#3E3E3E"/>
<path d="M106.725 71.4163C107.187 71.4163 107.561 71.0437 107.561 70.584C107.561 70.1244 107.187 69.7517 106.725 69.7517C106.263 69.7517 105.889 70.1244 105.889 70.584C105.889 71.0437 106.263 71.4163 106.725 71.4163Z" fill="#3E3E3E"/>
<path d="M107.055 74.0622C107.517 74.0622 107.891 73.6896 107.891 73.2299C107.891 72.7702 107.517 72.3976 107.055 72.3976C106.593 72.3976 106.219 72.7702 106.219 73.2299C106.219 73.6896 106.593 74.0622 107.055 74.0622Z" fill="#3E3E3E"/>
<path d="M108.34 76.5416C108.802 76.5416 109.176 76.169 109.176 75.7093C109.176 75.2497 108.802 74.877 108.34 74.877C107.878 74.877 107.504 75.2497 107.504 75.7093C107.504 76.169 107.878 76.5416 108.34 76.5416Z" fill="#3E3E3E"/>
<path d="M113.137 79.5686C113.599 79.5686 113.973 79.196 113.973 78.7363C113.973 78.2766 113.599 77.904 113.137 77.904C112.675 77.904 112.301 78.2766 112.301 78.7363C112.301 79.196 112.675 79.5686 113.137 79.5686Z" fill="#3E3E3E"/>
<path d="M115.936 79.2707C116.398 79.2707 116.772 78.8981 116.772 78.4384C116.772 77.9787 116.398 77.6061 115.936 77.6061C115.474 77.6061 115.1 77.9787 115.1 78.4384C115.1 78.8981 115.474 79.2707 115.936 79.2707Z" fill="#3E3E3E"/>
<path d="M118.677 77.9653C119.139 77.9653 119.514 77.5926 119.514 77.133C119.514 76.6733 119.139 76.3007 118.677 76.3007C118.216 76.3007 117.841 76.6733 117.841 77.133C117.841 77.5926 118.216 77.9653 118.677 77.9653Z" fill="#3E3E3E"/>
<path d="M120.609 76.0466C121.071 76.0466 121.446 75.674 121.446 75.2143C121.446 74.7547 121.071 74.382 120.609 74.382C120.148 74.382 119.773 74.7547 119.773 75.2143C119.773 75.674 120.148 76.0466 120.609 76.0466Z" fill="#3E3E3E"/>
<path d="M121.564 73.6635C122.026 73.6635 122.401 73.2909 122.401 72.8312C122.401 72.3715 122.026 71.9989 121.564 71.9989C121.103 71.9989 120.728 72.3715 120.728 72.8312C120.728 73.2909 121.103 73.6635 121.564 73.6635Z" fill="#3E3E3E"/>
<path d="M121.309 70.8513C121.771 70.8513 122.145 70.4786 122.145 70.019C122.145 69.5593 121.771 69.1866 121.309 69.1866C120.847 69.1866 120.473 69.5593 120.473 70.019C120.473 70.4786 120.847 70.8513 121.309 70.8513Z" fill="#3E3E3E"/>
<path d="M120.02 68.5471C120.482 68.5471 120.856 68.1744 120.856 67.7148C120.856 67.2551 120.482 66.8824 120.02 66.8824C119.558 66.8824 119.184 67.2551 119.184 67.7148C119.184 68.1744 119.558 68.5471 120.02 68.5471Z" fill="#3E3E3E"/>
<path d="M117.855 66.6109C118.316 66.6109 118.691 66.2382 118.691 65.7785C118.691 65.3189 118.316 64.9462 117.855 64.9462C117.393 64.9462 117.018 65.3189 117.018 65.7785C117.018 66.2382 117.393 66.6109 117.855 66.6109Z" fill="#3E3E3E"/>
<path d="M115.038 65.6734C115.5 65.6734 115.874 65.3008 115.874 64.8411C115.874 64.3814 115.5 64.0088 115.038 64.0088C114.576 64.0088 114.202 64.3814 114.202 64.8411C114.202 65.3008 114.576 65.6734 115.038 65.6734Z" fill="#3E3E3E"/>
<path d="M110.307 78.4428C110.769 78.4428 111.143 78.0702 111.143 77.6105C111.143 77.1508 110.769 76.7782 110.307 76.7782C109.845 76.7782 109.471 77.1508 109.471 77.6105C109.471 78.0702 109.845 78.4428 110.307 78.4428Z" fill="#3E3E3E"/>
<path d="M76.478 51.4365H69.7668V60.8548H76.478V51.4365Z" fill="white" stroke="white" stroke-width="0.352759" stroke-linejoin="round"/>
<path d="M72.57 58.7345V53.5523C72.57 53.5523 69.7799 55.9967 72.57 58.7345Z" fill="#1E1E1E"/>
<path d="M74.0003 53.5523V58.7345C74.0003 58.7345 76.7904 56.2902 74.0003 53.5523Z" fill="#1E1E1E"/>
<path d="M145.342 63.2597L189.025 60.4298" stroke="#686768" stroke-width="1.05828" stroke-linecap="round" stroke-linejoin="round"/>
<path d="M128.298 61.8404C128.298 61.8404 153.963 65.2748 153.404 56.6319" stroke="#686768" stroke-width="1.05828" stroke-linecap="round" stroke-linejoin="round"/>
<path d="M151.411 49.0272H151.406C149.52 49.0272 147.991 50.5492 147.991 52.4266V56.0887C147.991 57.9661 149.52 59.4881 151.406 59.4881H151.411C153.297 59.4881 154.826 57.9661 154.826 56.0887V52.4266C154.826 50.5492 153.297 49.0272 151.411 49.0272Z" fill="#101112"/>
<path d="M161.559 36.836C164.904 38.4261 172.121 40.98 176.157 35.8854V30.5192L179.127 24.0578L153.413 14.7491L159.874 30.5192L159.803 33.9799C159.786 34.5741 159.943 35.1605 160.255 35.6676C160.567 36.1747 161.02 36.5806 161.559 36.836Z" fill="#434242" stroke="#434242" stroke-width="0.352759" stroke-miterlimit="10"/>
<path d="M138.618 41.0326L138.829 44.8962L143.965 44.8305L143.771 40.8924L138.618 41.0326Z" fill="white" stroke="white" stroke-width="0.352759" stroke-linecap="round" stroke-linejoin="round"/>
<path d="M140.233 43.0038V43.88" stroke="#201600" stroke-width="0.352759" stroke-miterlimit="10" stroke-linecap="round"/>
<path d="M142.543 43.0038V43.88" stroke="#201600" stroke-width="0.352759" stroke-miterlimit="10" stroke-linecap="round"/>
<path d="M141.39 41.5802V42.4563" stroke="#201600" stroke-width="0.352759" stroke-miterlimit="10" stroke-linecap="round"/>
<path d="M40.5145 52.5666L40.7213 28.2018C40.7213 28.2018 39.8719 25.464 49.3337 22.9451C49.3337 22.9451 110.096 0.647949 136.413 0.647949L148.542 34.2908L40.5145 52.5666Z" fill="#E29265"/>
<path d="M50.1831 22.6517L52.6036 12.4493C52.6036 12.4493 53.0436 10.9161 62.1754 8.94482C71.3071 6.97356 121.204 -2.57612 136.413 0.665517L50.1831 22.6517Z" fill="#D3AE9C"/>
<path d="M57.2244 17.0489L58.2146 11.5732L71.329 8.94482C71.329 8.94482 70.8669 11.7922 70.7569 12.2303C70.6469 12.6683 57.2244 17.0489 57.2244 17.0489Z" fill="#C6C6C6"/>
<path d="M27.1227 33.4849L27.5012 36.1307" stroke="#201600" stroke-width="1.05828" stroke-miterlimit="10"/>
<path d="M16.5167 32.2539L16.8952 34.9042" stroke="#201600" stroke-width="1.05828" stroke-miterlimit="10"/>
<path d="M25.6485 35.3028L27.4088 53.9466L30.9295 53.7626L29.2044 34.9042L25.6485 35.3028Z" fill="#888787" stroke="#878686" stroke-width="0.352759" stroke-miterlimit="10"/>
<path d="M20.3102 75.9064C23.3192 75.9064 25.7584 73.4784 25.7584 70.4833C25.7584 67.4881 23.3192 65.0601 20.3102 65.0601C17.3013 65.0601 14.862 67.4881 14.862 70.4833C14.862 73.4784 17.3013 75.9064 20.3102 75.9064Z" fill="#202020"/>
<path d="M15.7466 34.8648L29.0591 33.2484" stroke="#878686" stroke-width="1.05828" stroke-linecap="round" stroke-linejoin="round"/>
<path d="M20.165 73.4051C21.7862 73.4051 23.1004 72.0969 23.1004 70.4833C23.1004 68.8696 21.7862 67.5614 20.165 67.5614C18.5439 67.5614 17.2297 68.8696 17.2297 70.4833C17.2297 72.0969 18.5439 73.4051 20.165 73.4051Z" fill="#C9C8C8"/>
<path d="M16.5167 33.2527C17.4281 33.2527 18.167 32.6879 18.167 31.9911C18.167 31.2943 17.4281 30.7295 16.5167 30.7295C15.6053 30.7295 14.8664 31.2943 14.8664 31.9911C14.8664 32.6879 15.6053 33.2527 16.5167 33.2527Z" fill="#5D5D5D"/>
<path d="M9.62505 59.5975L1.11825 60.3334C1.11825 60.3334 0.427323 57.4203 2.38569 57.267L5.49708 56.9998L9.3654 56.6669L9.62505 59.5975Z" fill="#919191" stroke="#919191" stroke-width="0.352759" stroke-miterlimit="10"/>
<path d="M8.43243 53.4121C8.43243 53.4121 3.33627 53.031 4.33966 57.0831" stroke="#919191" stroke-width="0.705518" stroke-linecap="round" stroke-linejoin="round"/>
</svg>
