<svg width="135" height="105" viewBox="0 0 135 105" fill="none" xmlns="http://www.w3.org/2000/svg">
<path d="M49.2835 90.8841L73.5163 71.9135L65.5947 65.6226L41.2693 84.6704L49.2835 90.8841Z" fill="#E29265"/>
<path d="M57.9098 97.7258L73.0328 86.0449L64.2985 79.131L49.2835 90.884L57.9098 97.7258Z" fill="#E29265"/>
<path d="M57.9098 97.7257L67.2407 105L91.4427 86.1529L82.2351 78.8375L57.9098 97.7257Z" fill="#E29265"/>
<path d="M73.5163 71.9135L100.573 50.7344L92.5435 44.4692L65.5947 65.6225L73.5163 71.9135Z" fill="#E29265"/>
<path d="M64.2985 79.131L73.0328 86.0449L100.069 64.8812L91.4427 57.9468L64.2985 79.131Z" fill="#E29265"/>
<path d="M82.2351 78.8376L91.4427 86.153L118.849 64.9841L109.374 57.5967L82.2351 78.8376Z" fill="#E29265"/>
<path d="M109.374 57.5967L124.981 45.3752L134.322 52.5002L118.597 64.7886L109.374 57.5967Z" fill="#E29265"/>
<path d="M100.069 64.8812L124.981 45.3752L116.452 38.3018L91.4427 57.9468L100.069 64.8812Z" fill="#E29265"/>
<path d="M100.573 50.7344L116.452 38.3018L108.345 32.155L92.5435 44.4692L100.573 50.7344Z" fill="#E29265"/>
<path d="M41.2693 84.6704L25.241 72.2378L92.7029 19.4239L108.345 32.155L41.2693 84.6704Z" fill="#E29265"/>
<path d="M9.21268 59.8052L76.8701 6.84204" stroke="#201600" stroke-width="0.352763" stroke-miterlimit="10"/>
<path d="M17.2268 66.0241L84.8842 13.0609" stroke="#201600" stroke-width="0.352763" stroke-miterlimit="10"/>
<path d="M25.241 72.2378L92.7029 19.4239" stroke="#201600" stroke-width="0.352763" stroke-miterlimit="10"/>
<path d="M32.5504 78.1941L100.203 25.2309" stroke="#201600" stroke-width="0.0881909" stroke-miterlimit="10"/>
<path d="M108.345 32.155L41.2693 84.6703" stroke="#201600" stroke-width="0.0881909" stroke-miterlimit="10"/>
<path d="M116.452 38.3018L49.2835 90.8841" stroke="#201600" stroke-width="0.0881909" stroke-miterlimit="10"/>
<path d="M57.9098 97.8854L124.981 45.3752" stroke="#201600" stroke-width="0.0881909" stroke-miterlimit="10"/>
<path d="M64.1699 79.1259L73.0328 86.0448" stroke="#201600" stroke-width="0.0881909" stroke-miterlimit="10"/>
<path d="M47.73 66.3124L56.2431 72.9482" stroke="#201600" stroke-width="0.0881909" stroke-miterlimit="10"/>
<path d="M32.2675 54.2505L40.2611 60.4797" stroke="#201600" stroke-width="0.352763" stroke-miterlimit="10"/>
<path d="M15.1796 40.9273L24.274 48.0162" stroke="#201600" stroke-width="0.352763" stroke-miterlimit="10"/>
<path d="M109.374 57.5967L118.849 64.9841" stroke="#201600" stroke-width="0.0881909" stroke-miterlimit="10"/>
<path d="M92.5435 44.4692L100.573 50.7344" stroke="#201600" stroke-width="0.0881909" stroke-miterlimit="10"/>
<path d="M76.5975 32.0366L84.0715 37.8642" stroke="#201600" stroke-width="0.352763" stroke-miterlimit="10"/>
<path d="M60.4303 19.4239L68.6039 25.8023" stroke="#201600" stroke-width="0.352763" stroke-miterlimit="10"/>
<path d="M43.0645 19.4239L51.7268 26.5231" stroke="#201600" stroke-width="0.352763" stroke-miterlimit="10"/>
<path d="M33.929 40.4589L41.7786 46.8013" stroke="#201600" stroke-width="0.352763" stroke-miterlimit="10"/>
<path d="M91.3604 57.9468L100.069 64.8812" stroke="#201600" stroke-width="0.0881909" stroke-miterlimit="10"/>
<path d="M75.0286 44.9428L83.5365 51.7125" stroke="#201600" stroke-width="0.0881909" stroke-miterlimit="10"/>
<path d="M59.7255 32.7522L67.6317 39.0534" stroke="#201600" stroke-width="0.352763" stroke-miterlimit="10"/>
<path d="M45.7805 21.6478L51.7731 26.4252" stroke="#201600" stroke-width="0.352763" stroke-miterlimit="10"/>
<path d="M82.2351 78.8375L91.4427 86.1529" stroke="#201600" stroke-width="0.0881909" stroke-miterlimit="10"/>
<path d="M73.5163 71.9135L65.5947 65.6226" stroke="#201600" stroke-width="0.0881909" stroke-miterlimit="10"/>
<path d="M49.7567 53.0458L57.1639 58.9249" stroke="#201600" stroke-width="0.0881909" stroke-miterlimit="10"/>
<path d="M35.0761 41.3854L41.8094 46.7343" stroke="#201600" stroke-width="0.352763" stroke-miterlimit="10"/>
<path d="M40.4412 76.3871L72.4926 100.912" stroke="#F3D2C9" stroke-width="0.352763" stroke-miterlimit="10"/>
<path d="M45.7805 70.9971L78.619 96.1247" stroke="#F3D2C9" stroke-width="0.352763" stroke-miterlimit="10"/>
<path d="M49.1909 64.1399L84.7454 91.3422" stroke="#F3D2C9" stroke-width="0.352763" stroke-miterlimit="10"/>
<path d="M50.6003 55.7435L90.8717 86.5546" stroke="#F3D2C9" stroke-width="0.352763" stroke-miterlimit="10"/>
<path d="M57.452 51.5168L96.9981 81.7668" stroke="#F3D2C9" stroke-width="0.352763" stroke-miterlimit="10"/>
<path d="M68.6039 50.7344L103.124 76.9843" stroke="#F3D2C9" stroke-width="0.352763" stroke-miterlimit="10"/>
<path d="M78.0275 48.3096L109.246 72.1966" stroke="#F3D2C9" stroke-width="0.352763" stroke-miterlimit="10"/>
<path d="M83.1919 42.7909L115.372 67.414" stroke="#F3D2C9" stroke-width="0.352763" stroke-miterlimit="10"/>
<path d="M84.8842 33.3237L122.388 62.055" stroke="#F3D2C9" stroke-width="0.352763" stroke-miterlimit="10"/>
<path d="M86.5663 25.1743L128.52 57.2775" stroke="#F3D2C9" stroke-width="0.352763" stroke-miterlimit="10"/>
<path d="M63.0073 101.7L129.61 48.8347" stroke="#F3D2C9" stroke-width="0.352763" stroke-miterlimit="10"/>
<path d="M53.4603 94.2663L120.413 41.4473" stroke="#F3D2C9" stroke-width="0.352763" stroke-miterlimit="10"/>
<path d="M45.3278 87.9291L112.239 34.9504" stroke="#F3D2C9" stroke-width="0.352763" stroke-miterlimit="10"/>
<path d="M37.4166 81.7668L103.634 28.3197" stroke="#F3D2C9" stroke-width="0.352763" stroke-miterlimit="10"/>
<path d="M29.068 75.2648L95.7121 22.6157" stroke="#F3D2C9" stroke-width="0.352763" stroke-miterlimit="10"/>
<path d="M35.0761 79.9441C35.0761 79.9441 47.1025 74.2041 49.7567 62.0547C51.7268 53.0456 64.9517 49.9722 68.6039 50.7289C77.0604 52.5102 86.6795 48.3196 84.874 33.3234C83.0685 18.3271 98.4949 24.0569 98.4949 24.0569L68.2592 0L0 52.6286L35.0761 79.9441Z" fill="#B0AFB0"/>
</svg>
