<svg width="75" height="103" viewBox="0 0 75 103" fill="none" xmlns="http://www.w3.org/2000/svg">
<path d="M48.5118 60.0436L59.7519 97.1628L45.0644 89.7374L36.35 102.492L28.6771 68.9854L40.2444 61.2279L48.5118 60.0436Z" fill="#C4805E"/>
<path d="M23.5419 60.5878L12.9722 102.452L30.9315 91.3617L43.3167 103L49.7049 65.7568L34.1914 60.0397L23.5419 60.5878Z" fill="#E29265"/>
<path d="M37.1716 74.5425C57.7009 74.5425 74.3432 57.8556 74.3432 37.2712C74.3432 16.6869 57.7009 0 37.1716 0C16.6423 0 0 16.6869 0 37.2712C0 57.8556 16.6423 74.5425 37.1716 74.5425Z" fill="#B0AFB0"/>
<path d="M26.4946 35.7589L38.7042 45.8929L59.3489 25.0688" stroke="#DB9269" stroke-width="6" stroke-linecap="round" stroke-linejoin="round"/>
</svg>
