<svg width="99" height="78" viewBox="0 0 99 78" fill="none" xmlns="http://www.w3.org/2000/svg">
<path d="M2.72406 22.616H88.4125V73.4596C88.4125 74.3986 88.038 75.2991 87.3716 75.963C86.7051 76.627 85.8011 77 84.8586 77H6.3974C5.42376 77 4.48995 76.6149 3.80116 75.9294C3.11238 75.2438 2.72496 74.3139 2.72406 73.344V22.616Z" fill="#676667" stroke="#686768" stroke-width="1.05827" stroke-linecap="round" stroke-linejoin="round"/>
<path d="M53.9664 9.69257H36.7263C34.6524 9.69257 32.9711 11.3675 32.9711 13.4336V21.14C32.9711 23.2061 34.6524 24.881 36.7263 24.881H53.9664C56.0404 24.881 57.7217 23.2061 57.7217 21.14V13.4336C57.7217 11.3675 56.0404 9.69257 53.9664 9.69257Z" stroke="#666566" stroke-width="3.88031" stroke-linejoin="round"/>
<path d="M1.00003 20.0178L1.04782 38.0426C1.05084 38.6249 1.25673 39.1881 1.63033 39.6359C2.00393 40.0838 2.52205 40.3885 3.09615 40.498L45.7321 48.633L87.8833 40.5389C88.5181 40.4172 89.0906 40.079 89.5024 39.5825C89.9142 39.086 90.1396 38.4622 90.1399 37.8181V20.0654C90.1399 19.572 89.9431 19.0988 89.5929 18.7499C89.2427 18.4011 88.7677 18.2051 88.2725 18.2051H2.80939C2.57091 18.2051 2.33479 18.252 2.1146 18.3433C1.89441 18.4345 1.69449 18.5682 1.52634 18.7366C1.35819 18.9051 1.22513 19.105 1.13481 19.3248C1.04448 19.5447 0.998679 19.7802 1.00003 20.0178Z" fill="#888787" stroke="#878686" stroke-width="0.352755" stroke-miterlimit="10"/>
<path d="M28.4238 38.3453H16.7551C15.6239 38.3453 14.7068 39.2589 14.7068 40.3858V48.633C14.7068 49.76 15.6239 50.6736 16.7551 50.6736H28.4238C29.555 50.6736 30.4721 49.76 30.4721 48.633V40.3858C30.4721 39.2589 29.555 38.3453 28.4238 38.3453Z" fill="#434242" stroke="#434242" stroke-width="0.352755" stroke-miterlimit="10"/>
<path d="M72.9749 38.3453H61.3063C60.175 38.3453 59.2579 39.2589 59.2579 40.3858V48.633C59.2579 49.76 60.175 50.6736 61.3063 50.6736H72.9749C74.1062 50.6736 75.0232 49.76 75.0232 48.633V40.3858C75.0232 39.2589 74.1062 38.3453 72.9749 38.3453Z" fill="#434242" stroke="#434242" stroke-width="0.352755" stroke-miterlimit="10"/>
<path d="M80.1441 37.512C90.5423 37.512 98.9716 29.1147 98.9716 18.756C98.9716 8.39736 90.5423 0 80.1441 0C69.7459 0 61.3165 8.39736 61.3165 18.756C61.3165 29.1147 69.7459 37.512 80.1441 37.512Z" fill="#E29265"/>
<path d="M70.4828 29.0404L80.1441 18.756L76.9248 9.30151" stroke="#424141" stroke-width="2" stroke-miterlimit="10" stroke-linecap="round"/>
<path d="M80.1442 20.8918C81.3282 20.8918 82.2881 19.9356 82.2881 18.756C82.2881 17.5765 81.3282 16.6202 80.1442 16.6202C78.9601 16.6202 78.0002 17.5765 78.0002 18.756C78.0002 19.9356 78.9601 20.8918 80.1442 20.8918Z" fill="#201600"/>
</svg>
