<svg width="47" height="63" viewBox="0 0 47 63" fill="none" xmlns="http://www.w3.org/2000/svg">
<path d="M44.1107 0H2.88926C1.29357 0 0 1.28921 0 2.87953V60.1205C0 61.7108 1.29357 63 2.88926 63H44.1107C45.7064 63 47 61.7108 47 60.1205V2.87953C47 1.28921 45.7064 0 44.1107 0Z" fill="#B2B0B1"/>
<path d="M41.3267 6.5592H5.67532C5.44737 6.5592 5.26257 6.74338 5.26257 6.97057V18.9618C5.26257 19.1889 5.44737 19.3731 5.67532 19.3731H41.3267C41.5547 19.3731 41.7395 19.1889 41.7395 18.9618V6.97057C41.7395 6.74338 41.5547 6.5592 41.3267 6.5592Z" fill="white"/>
<path d="M34.2609 13.4986C34.2609 12.1493 34.4919 11.1483 34.9539 10.4956C35.4159 9.83562 36.0795 9.50562 36.9449 9.50562C37.8689 9.50562 38.5472 9.83195 38.9799 10.4846C39.4125 11.13 39.6289 12.1346 39.6289 13.4986C39.6289 14.8553 39.3942 15.8636 38.9249 16.5236C38.4629 17.1836 37.7992 17.5136 36.9339 17.5136C36.0172 17.5136 35.3425 17.169 34.9099 16.4796C34.4772 15.783 34.2609 14.7893 34.2609 13.4986ZM35.6909 13.4986C35.6909 14.3933 35.7862 15.0863 35.9769 15.5776C36.1749 16.0616 36.4975 16.3036 36.9449 16.3036C37.3775 16.3036 37.6929 16.08 37.8909 15.6326C38.0962 15.1853 38.1989 14.474 38.1989 13.4986C38.1989 12.6113 38.1035 11.9256 37.9129 11.4416C37.7222 10.9576 37.3959 10.7156 36.9339 10.7156C36.4939 10.7156 36.1749 10.943 35.9769 11.3976C35.7862 11.8523 35.6909 12.5526 35.6909 13.4986Z" fill="#3CAFAC"/>
<path d="M40.7076 41.0127H33.664C33.0941 41.0127 32.6321 41.4731 32.6321 42.0411V58.7712C32.6321 59.3391 33.0941 59.7996 33.664 59.7996H40.7076C41.2775 59.7996 41.7395 59.3391 41.7395 58.7712V42.0411C41.7395 41.4731 41.2775 41.0127 40.7076 41.0127Z" fill="#3CAFAC"/>
<path d="M40.6994 31.8538H33.664C33.0941 31.8538 32.6321 32.3142 32.6321 32.8822V36.4096C32.6321 36.9776 33.0941 37.438 33.664 37.438H40.6994C41.2693 37.438 41.7313 36.9776 41.7313 36.4096V32.8822C41.7313 32.3142 41.2693 31.8538 40.6994 31.8538Z" fill="#3CAFAC"/>
<path d="M40.7035 22.8038H33.664C33.0941 22.8038 32.6321 23.2643 32.6321 23.8322V27.3597C32.6321 27.9276 33.0941 28.3881 33.664 28.3881H40.7035C41.2734 28.3881 41.7354 27.9276 41.7354 27.3597V23.8322C41.7354 23.2643 41.2734 22.8038 40.7035 22.8038Z" fill="#3CAFAC"/>
<path d="M27.2003 22.8038H20.1608C19.591 22.8038 19.129 23.2643 19.129 23.8322V27.3597C19.129 27.9276 19.591 28.3881 20.1608 28.3881H27.2003C27.7702 28.3881 28.2322 27.9276 28.2322 27.3597V23.8322C28.2322 23.2643 27.7702 22.8038 27.2003 22.8038Z" fill="#3CAFAC"/>
<path d="M27.2003 31.8538H20.1608C19.591 31.8538 19.129 32.3142 19.129 32.8822V36.4096C19.129 36.9776 19.591 37.438 20.1608 37.438H27.2003C27.7702 37.438 28.2322 36.9776 28.2322 36.4096V32.8822C28.2322 32.3142 27.7702 31.8538 27.2003 31.8538Z" fill="#3CAFAC"/>
<path d="M27.2271 51.7616H20.1876C19.6177 51.7616 19.1558 52.222 19.1558 52.79V58.7733C19.1558 59.3412 19.6177 59.8017 20.1876 59.8017H27.2271C27.797 59.8017 28.259 59.3412 28.259 58.7733V52.79C28.259 52.222 27.797 51.7616 27.2271 51.7616Z" fill="#3CAFAC"/>
<path d="M13.3298 51.7616H6.29036C5.72047 51.7616 5.25848 52.222 5.25848 52.79V58.7733C5.25848 59.3412 5.72047 59.8017 6.29036 59.8017H13.3298C13.8997 59.8017 14.3617 59.3412 14.3617 58.7733V52.79C14.3617 52.222 13.8997 51.7616 13.3298 51.7616Z" fill="#3CAFAC"/>
<path d="M27.2271 41.0127H20.1876C19.6177 41.0127 19.1558 41.4731 19.1558 42.0411V48.0244C19.1558 48.5923 19.6177 49.0528 20.1876 49.0528H27.2271C27.797 49.0528 28.259 48.5923 28.259 48.0244V42.0411C28.259 41.4731 27.797 41.0127 27.2271 41.0127Z" fill="#3CAFAC"/>
<path d="M13.3298 41.0127H6.29036C5.72047 41.0127 5.25848 41.4731 5.25848 42.0411V48.0244C5.25848 48.5923 5.72047 49.0528 6.29036 49.0528H13.3298C13.8997 49.0528 14.3617 48.5923 14.3617 48.0244V42.0411C14.3617 41.4731 13.8997 41.0127 13.3298 41.0127Z" fill="#3CAFAC"/>
<path d="M13.2844 31.8456H6.24495C5.67506 31.8456 5.21307 32.306 5.21307 32.874V36.4014C5.21307 36.9694 5.67506 37.4298 6.24495 37.4298H13.2844C13.8543 37.4298 14.3163 36.9694 14.3163 36.4014V32.874C14.3163 32.306 13.8543 31.8456 13.2844 31.8456Z" fill="#3CAFAC"/>
<path d="M13.2844 22.8038H6.24495C5.67506 22.8038 5.21307 23.2643 5.21307 23.8322V27.3597C5.21307 27.9276 5.67506 28.3881 6.24495 28.3881H13.2844C13.8543 28.3881 14.3163 27.9276 14.3163 27.3597V23.8322C14.3163 23.2643 13.8543 22.8038 13.2844 22.8038Z" fill="#3CAFAC"/>
</svg>
