<svg width="95" height="84" viewBox="0 0 95 84" fill="none" xmlns="http://www.w3.org/2000/svg">
<path d="M33.18 68.3H26.58V80H19.32V68.3H1.14V63.86L20.16 37.7H26.58V62.06H33.18V68.3ZM19.32 52.88L19.86 47.84H19.62L17.58 52.16L11.34 60.26L8.34 62.54L12.18 62.06H19.32V52.88Z" fill="black"/>
<path d="M14 26.2V3H92V79H68.7857" stroke="#3FB0AC" stroke-width="5"/>
<path d="M92 79H42" stroke="#3FB0AC" stroke-width="5"/>
<path d="M50.5 49H81" stroke="#3FB0AC" stroke-width="4" stroke-linecap="round"/>
<rect x="49.5" y="37.5" width="32" height="19" rx="1.5" stroke="#3FB0AC" stroke-width="3"/>
<path d="M43 40.5C42.1667 36.8334 42.7 29.7 51.5 30.5" stroke="#3FB0AC" stroke-width="2" stroke-linecap="round"/>
<path d="M36.3518 36.9995C36.3518 32.9996 36.3518 25.0736 47 25.0735M30.5 32C30.5 28 30.5 20.074 41.1482 20.074" stroke="#3FB0AC" stroke-width="2" stroke-linecap="round"/>
</svg>
