<svg width="98" height="84" viewBox="0 0 98 84" fill="none" xmlns="http://www.w3.org/2000/svg">
<path d="M28.5 48.26C28.5 50.3 28.12 52.36 27.36 54.44C26.64 56.52 25.7 58.56 24.54 60.56C23.42 62.56 22.16 64.5 20.76 66.38C19.4 68.22 18.06 69.92 16.74 71.48L13.56 73.94V74.24L17.88 73.4H29.4V80H4.14V75.98C5.1 74.98 6.18 73.82 7.38 72.5C8.58 71.14 9.78 69.72 10.98 68.24C12.22 66.72 13.42 65.16 14.58 63.56C15.74 61.96 16.78 60.36 17.7 58.76C18.62 57.12 19.34 55.54 19.86 54.02C20.42 52.5 20.7 51.06 20.7 49.7C20.7 48.06 20.22 46.72 19.26 45.68C18.34 44.6 16.86 44.06 14.82 44.06C13.54 44.06 12.22 44.34 10.86 44.9C9.54 45.42 8.42 46.1 7.5 46.94L4.38 41.42C5.94 40.14 7.7 39.12 9.66 38.36C11.66 37.56 14 37.16 16.68 37.16C18.4 37.16 19.98 37.4 21.42 37.88C22.86 38.36 24.1 39.06 25.14 39.98C26.18 40.9 27 42.06 27.6 43.46C28.2 44.82 28.5 46.42 28.5 48.26Z" fill="black"/>
<path d="M17 26.2V3H95V79H71.7857" stroke="#3FB0AC" stroke-width="5"/>
<path d="M95 79H45" stroke="#3FB0AC" stroke-width="5"/>
<path d="M49.5 54.1526L58.5 57.3923L68.5 54.1526" stroke="#3FB0AC" stroke-width="2.5" stroke-linecap="round"/>
<path d="M76 68.5L59 31.9373M59 31.9373V68.5M59 31.9373L42.5 68.5" stroke="#3FB0AC" stroke-width="2.5" stroke-linecap="round"/>
<rect x="54" y="16.1844" width="5" height="1.88525" fill="#3FB0AC"/>
<rect x="51" y="24.6681" width="4.71311" height="2" transform="rotate(-90 51 24.6681)" fill="#3FB0AC"/>
<rect x="52" y="17.1271" width="14" height="12.9589" rx="3" fill="#3FB0AC"/>
<path d="M49 21.8402L45 21.8402" stroke="#3FB0AC" stroke-linecap="round"/>
<path d="M57 14.2992L57 11" stroke="#3FB0AC" stroke-linecap="round"/>
</svg>
