<svg width="98" height="84" viewBox="0 0 98 84" fill="none" xmlns="http://www.w3.org/2000/svg">
<path d="M14.46 74.24C16.94 74.24 18.82 73.58 20.1 72.26C21.42 70.94 22.08 69.34 22.08 67.46C22.08 65.18 21.4 63.5 20.04 62.42C18.68 61.34 16.54 60.8 13.62 60.8H9.3V56.66L16.56 46.76L19.98 44.06L15.24 44.6H5.16V38H28.08V42.26L19.62 53.6L16.98 55.22V55.52L19.5 55.16C20.9 55.28 22.22 55.6 23.46 56.12C24.74 56.64 25.84 57.4 26.76 58.4C27.72 59.36 28.48 60.56 29.04 62C29.6 63.44 29.88 65.1 29.88 66.98C29.88 69.34 29.48 71.38 28.68 73.1C27.92 74.82 26.84 76.26 25.44 77.42C24.08 78.58 22.48 79.44 20.64 80C18.8 80.56 16.82 80.84 14.7 80.84C12.94 80.84 11.12 80.68 9.24 80.36C7.36 80.04 5.84 79.58 4.68 78.98L6.78 72.5C7.82 73.02 8.96 73.44 10.2 73.76C11.48 74.08 12.9 74.24 14.46 74.24Z" fill="black"/>
<path d="M17 26.2V3H95V79H71.7857" stroke="#3FB0AC" stroke-width="5"/>
<path d="M95 79H45" stroke="#3FB0AC" stroke-width="5"/>
<path d="M82 60C82 60.76 81.6384 61.572 80.8014 62.4053C79.9605 63.2423 78.6931 64.0421 77.047 64.7352C73.7587 66.1198 69.1465 67 64 67C58.8535 67 54.2413 66.1198 50.953 64.7352C49.3069 64.0421 48.0395 63.2423 47.1986 62.4053C46.3616 61.572 46 60.76 46 60C46 59.24 46.3616 58.428 47.1986 57.5947C48.0395 56.7577 49.3069 55.9579 50.953 55.2648C54.2413 53.8802 58.8535 53 64 53C69.1465 53 73.7587 53.8802 77.047 55.2648C78.6931 55.9579 79.9605 56.7577 80.8014 57.5947C81.6384 58.428 82 59.24 82 60Z" stroke="#3FB0AC" stroke-width="2"/>
<path d="M73.25 59.5C73.25 59.8677 73.0793 60.2807 72.641 60.7248C72.1996 61.1721 71.5237 61.6093 70.6292 61.9926C68.8429 62.7582 66.3229 63.25 63.5 63.25C60.6771 63.25 58.1571 62.7582 56.3708 61.9926C55.4763 61.6093 54.8004 61.1721 54.359 60.7248C53.9207 60.2807 53.75 59.8677 53.75 59.5C53.75 59.1323 53.9207 58.7193 54.359 58.2752C54.8004 57.8279 55.4763 57.3907 56.3708 57.0074C58.1571 56.2418 60.6771 55.75 63.5 55.75C66.3229 55.75 68.8429 56.2418 70.6292 57.0074C71.5237 57.3907 72.1996 57.8279 72.641 58.2752C73.0793 58.7193 73.25 59.1323 73.25 59.5Z" stroke="#3FB0AC" stroke-width="1.5"/>
<rect x="58" y="42" width="11" height="18" rx="4" fill="#3FB0AC"/>
<line x1="60.6524" y1="47.5712" x2="46.5712" y2="20.3476" stroke="#3FB0AC" stroke-width="2" stroke-linecap="round"/>
<line x1="37.5" y1="19.5" x2="55.5" y2="19.5" stroke="#3FB0AC" stroke-width="3" stroke-linecap="round"/>
</svg>
