<svg width="426" height="216" viewBox="0 0 426 216" fill="none" xmlns="http://www.w3.org/2000/svg">
<path d="M104.204 153.48L212.993 206.223L425 103.724L316.613 50.2477L104.204 153.48Z" fill="#E29265" stroke="#201600" stroke-width="0.088194" stroke-linecap="round" stroke-linejoin="round"/>
<path d="M212.993 206.224V215.06L425 111.411V103.724L212.993 206.224Z" fill="#BC8063" stroke="#704736" stroke-width="0.088194" stroke-linecap="round" stroke-linejoin="round"/>
<path d="M104.204 153.638L212.993 206.224V215.06L104.204 161.87V153.638Z" fill="#C67E5F" stroke="#704736" stroke-width="0.088194" stroke-linecap="round" stroke-linejoin="round"/>
<path d="M104.204 161.87L1 112.517V103.724L104.204 153.48V161.87Z" fill="#C67E5F" stroke="#704736" stroke-width="0.088194" stroke-linecap="round" stroke-linejoin="round"/>
<path d="M1 103.724L104.204 153.48L316.613 50.2477L216.195 0.722229L1 103.724Z" fill="#E29265" stroke="#201600" stroke-width="0.088194" stroke-linejoin="round"/>
<path d="M30.0458 117.776L243.345 14.1129" stroke="#704736" stroke-width="0.088194" stroke-miterlimit="10"/>
<path d="M54.9996 130.089L268.313 26.426" stroke="#704736" stroke-width="0.088194" stroke-miterlimit="10"/>
<path d="M80.5709 142.1L293.267 38.7392" stroke="#704736" stroke-width="0.088194" stroke-miterlimit="10"/>
<path d="M316.613 50.2477L104.204 153.48" stroke="#704736" stroke-width="0.088194" stroke-miterlimit="10"/>
<path d="M343.189 63.3654L131.11 166.439" stroke="#704736" stroke-width="0.088194" stroke-miterlimit="10"/>
<path d="M368.157 75.6786L156.121 178.724" stroke="#704736" stroke-width="0.088194" stroke-miterlimit="10"/>
<path d="M183.875 192.158L395.638 89.2417" stroke="#704736" stroke-width="0.088194" stroke-miterlimit="10"/>
<path d="M203.301 155.592L231.256 169.126" stroke="#704736" stroke-width="0.088194" stroke-miterlimit="10"/>
<path d="M151.484 130.506L178.319 143.494" stroke="#704736" stroke-width="0.088194" stroke-miterlimit="10"/>
<path d="M48.8544 80.8222L77.5269 94.7014" stroke="#704736" stroke-width="0.088194" stroke-miterlimit="10"/>
<path d="M345.831 113.451L375.695 127.92" stroke="#704736" stroke-width="0.088194" stroke-miterlimit="10"/>
<path d="M292.765 87.7618L318.077 100.017" stroke="#704736" stroke-width="0.088194" stroke-miterlimit="10"/>
<path d="M242.484 63.4229L266.045 74.8308" stroke="#704736" stroke-width="0.088194" stroke-miterlimit="10"/>
<path d="M192.088 39.0121L217.286 51.2103" stroke="#704736" stroke-width="0.088194" stroke-miterlimit="10"/>
<path d="M136.767 38.7392L164.076 52.6328" stroke="#704736" stroke-width="0.088194" stroke-miterlimit="10"/>
<path d="M107.965 79.9026L132.718 92.3307" stroke="#704736" stroke-width="0.088194" stroke-miterlimit="10"/>
<path d="M289.032 114.127L316.498 127.704" stroke="#704736" stroke-width="0.088194" stroke-miterlimit="10"/>
<path d="M237.545 88.6813L264.365 101.928" stroke="#704736" stroke-width="0.088194" stroke-miterlimit="10"/>
<path d="M189.288 64.8309L214.228 77.1584" stroke="#704736" stroke-width="0.088194" stroke-miterlimit="10"/>
<path d="M260.273 155.031L289.304 169.342" stroke="#704736" stroke-width="0.088194" stroke-miterlimit="10"/>
<path d="M232.778 141.468L207.81 129.17" stroke="#704736" stroke-width="0.088194" stroke-miterlimit="10"/>
<path d="M157.873 104.543L181.219 116.052" stroke="#704736" stroke-width="0.088194" stroke-miterlimit="10"/>
<path d="M30.0458 117.776V126.411" stroke="#704736" stroke-width="0.088194" stroke-miterlimit="10"/>
<path d="M55.3155 129.945V138.494" stroke="#704736" stroke-width="0.088194" stroke-miterlimit="10"/>
<path d="M80.5709 142.101V150.577" stroke="#704736" stroke-width="0.088194" stroke-miterlimit="10"/>
<path d="M131.11 166.439V175.031" stroke="#704736" stroke-width="0.088194" stroke-miterlimit="10"/>
<path d="M289.304 169.342V177.761" stroke="#704736" stroke-width="0.088194" stroke-miterlimit="10"/>
<path d="M375.379 127.819V135.678" stroke="#704736" stroke-width="0.088194" stroke-miterlimit="10"/>
<path d="M156.38 178.609V187.373" stroke="#704736" stroke-width="0.088194" stroke-miterlimit="10"/>
<path d="M184.105 192.158V200.936" stroke="#704736" stroke-width="0.088194" stroke-miterlimit="10"/>
<path d="M1 103.724V112.517" stroke="#704736" stroke-width="0.088194" stroke-miterlimit="10"/>
<path d="M127.923 119.098L102.912 106.799" stroke="#704736" stroke-width="0.088194" stroke-miterlimit="10"/>
<path d="M216.195 0.722229L1 103.724" stroke="#704736" stroke-width="0.088194" stroke-miterlimit="10"/>
<path d="M20.2544 96.1238L227.724 197.344" stroke="#F3D2C9" stroke-width="0.458609" stroke-miterlimit="10" stroke-linecap="round"/>
<path d="M39.6655 87.029L247.193 188.048" stroke="#F3D2C9" stroke-width="0.458609" stroke-miterlimit="10" stroke-linecap="round"/>
<path d="M58.2733 77.9918L266.59 178.724" stroke="#F3D2C9" stroke-width="0.458609" stroke-miterlimit="10" stroke-linecap="round"/>
<path d="M77.527 68.2073L285.859 169.342" stroke="#F3D2C9" stroke-width="0.458609" stroke-miterlimit="10" stroke-linecap="round"/>
<path d="M97.0536 58.9977L305.787 160.276" stroke="#F3D2C9" stroke-width="0.458609" stroke-miterlimit="10" stroke-linecap="round"/>
<path d="M116.681 49.5725L324.567 150.649" stroke="#F3D2C9" stroke-width="0.458609" stroke-miterlimit="10" stroke-linecap="round"/>
<path d="M136.695 40.765L342.471 142.273" stroke="#F3D2C9" stroke-width="0.458609" stroke-miterlimit="10" stroke-linecap="round"/>
<path d="M157.873 30.3341L362.888 131.741" stroke="#F3D2C9" stroke-width="0.458609" stroke-miterlimit="10" stroke-linecap="round"/>
<path d="M178.505 20.3486L385.286 121.411" stroke="#F3D2C9" stroke-width="0.458609" stroke-miterlimit="10" stroke-linecap="round"/>
<path d="M197.845 10.9664L404.483 111.986" stroke="#F3D2C9" stroke-width="0.458609" stroke-miterlimit="10" stroke-linecap="round"/>
<path d="M201.42 198.896L407.713 97.2445" stroke="#F3D2C9" stroke-width="0.458609" stroke-miterlimit="10" stroke-linecap="round"/>
<path d="M170.967 184.528L379.256 82.5032" stroke="#F3D2C9" stroke-width="0.458609" stroke-miterlimit="10" stroke-linecap="round"/>
<path d="M145.023 172.273L353.082 70.0033" stroke="#F3D2C9" stroke-width="0.458609" stroke-miterlimit="10" stroke-linecap="round"/>
<path d="M120.457 160.017L326.534 56.7419" stroke="#F3D2C9" stroke-width="0.458609" stroke-miterlimit="10" stroke-linecap="round"/>
<path d="M94.1534 147.287L302.758 44.9748" stroke="#F3D2C9" stroke-width="0.458609" stroke-miterlimit="10" stroke-linecap="round"/>
<path d="M69.0847 135.003L277.33 32.8628" stroke="#F3D2C9" stroke-width="0.458609" stroke-miterlimit="10" stroke-linecap="round"/>
<path d="M43.9874 122.733L252.735 20.3486" stroke="#F3D2C9" stroke-width="0.458609" stroke-miterlimit="10" stroke-linecap="round"/>
<path d="M19.2057 110.305L227.724 8.021" stroke="#F3D2C9" stroke-width="0.458609" stroke-miterlimit="10" stroke-linecap="round"/>
</svg>
