<svg width="426" height="365" viewBox="0 0 426 365" fill="none" xmlns="http://www.w3.org/2000/svg">
<path d="M104.204 302.48L212.993 355.223L425 252.724L316.613 199.248L104.204 302.48Z" fill="#E29265" stroke="#201600" stroke-width="0.088194" stroke-linecap="round" stroke-linejoin="round"/>
<path d="M212.993 355.224V364.06L425 260.411V252.724L212.993 355.224Z" fill="#BC8063" stroke="#704736" stroke-width="0.088194" stroke-linecap="round" stroke-linejoin="round"/>
<path d="M104.204 302.638L212.993 355.224V364.06L104.204 310.87V302.638Z" fill="#C67E5F" stroke="#704736" stroke-width="0.088194" stroke-linecap="round" stroke-linejoin="round"/>
<path d="M104.204 310.87L1 261.517V252.724L104.204 302.48V310.87Z" fill="#C67E5F" stroke="#704736" stroke-width="0.088194" stroke-linecap="round" stroke-linejoin="round"/>
<path d="M1 252.724L104.204 302.48L316.613 199.248L216.195 149.722L1 252.724Z" fill="#E29265" stroke="#201600" stroke-width="0.088194" stroke-linejoin="round"/>
<path d="M30.0458 266.776L243.345 163.113" stroke="#704736" stroke-width="0.088194" stroke-miterlimit="10"/>
<path d="M54.9996 279.089L268.313 175.426" stroke="#704736" stroke-width="0.088194" stroke-miterlimit="10"/>
<path d="M80.5709 291.1L293.267 187.739" stroke="#704736" stroke-width="0.088194" stroke-miterlimit="10"/>
<path d="M316.613 199.248L104.204 302.48" stroke="#704736" stroke-width="0.088194" stroke-miterlimit="10"/>
<path d="M343.189 212.365L131.11 315.439" stroke="#704736" stroke-width="0.088194" stroke-miterlimit="10"/>
<path d="M368.157 224.679L156.121 327.724" stroke="#704736" stroke-width="0.088194" stroke-miterlimit="10"/>
<path d="M183.875 341.158L395.638 238.242" stroke="#704736" stroke-width="0.088194" stroke-miterlimit="10"/>
<path d="M203.301 304.592L231.256 318.126" stroke="#704736" stroke-width="0.088194" stroke-miterlimit="10"/>
<path d="M151.484 279.506L178.319 292.494" stroke="#704736" stroke-width="0.088194" stroke-miterlimit="10"/>
<path d="M48.8544 229.822L77.5269 243.701" stroke="#704736" stroke-width="0.088194" stroke-miterlimit="10"/>
<path d="M345.831 262.451L375.695 276.92" stroke="#704736" stroke-width="0.088194" stroke-miterlimit="10"/>
<path d="M292.765 236.762L318.077 249.017" stroke="#704736" stroke-width="0.088194" stroke-miterlimit="10"/>
<path d="M242.484 212.423L266.045 223.831" stroke="#704736" stroke-width="0.088194" stroke-miterlimit="10"/>
<path d="M192.088 188.012L217.286 200.21" stroke="#704736" stroke-width="0.088194" stroke-miterlimit="10"/>
<path d="M136.767 187.739L164.076 201.633" stroke="#704736" stroke-width="0.088194" stroke-miterlimit="10"/>
<path d="M107.965 228.903L132.718 241.331" stroke="#704736" stroke-width="0.088194" stroke-miterlimit="10"/>
<path d="M289.032 263.127L316.498 276.704" stroke="#704736" stroke-width="0.088194" stroke-miterlimit="10"/>
<path d="M237.545 237.681L264.365 250.928" stroke="#704736" stroke-width="0.088194" stroke-miterlimit="10"/>
<path d="M189.288 213.831L214.228 226.158" stroke="#704736" stroke-width="0.088194" stroke-miterlimit="10"/>
<path d="M260.273 304.031L289.304 318.342" stroke="#704736" stroke-width="0.088194" stroke-miterlimit="10"/>
<path d="M232.778 290.468L207.81 278.17" stroke="#704736" stroke-width="0.088194" stroke-miterlimit="10"/>
<path d="M157.873 253.543L181.219 265.052" stroke="#704736" stroke-width="0.088194" stroke-miterlimit="10"/>
<path d="M30.0458 266.776V275.411" stroke="#704736" stroke-width="0.088194" stroke-miterlimit="10"/>
<path d="M55.3155 278.945V287.494" stroke="#704736" stroke-width="0.088194" stroke-miterlimit="10"/>
<path d="M80.5709 291.101V299.577" stroke="#704736" stroke-width="0.088194" stroke-miterlimit="10"/>
<path d="M131.11 315.439V324.031" stroke="#704736" stroke-width="0.088194" stroke-miterlimit="10"/>
<path d="M289.304 318.342V326.761" stroke="#704736" stroke-width="0.088194" stroke-miterlimit="10"/>
<path d="M375.379 276.819V284.678" stroke="#704736" stroke-width="0.088194" stroke-miterlimit="10"/>
<path d="M156.38 327.609V336.373" stroke="#704736" stroke-width="0.088194" stroke-miterlimit="10"/>
<path d="M184.105 341.158V349.936" stroke="#704736" stroke-width="0.088194" stroke-miterlimit="10"/>
<path d="M1 252.724V261.517" stroke="#704736" stroke-width="0.088194" stroke-miterlimit="10"/>
<path d="M127.923 268.098L102.912 255.799" stroke="#704736" stroke-width="0.088194" stroke-miterlimit="10"/>
<path d="M216.195 149.722L1 252.724" stroke="#704736" stroke-width="0.088194" stroke-miterlimit="10"/>
<path d="M20.2544 245.124L227.724 346.344" stroke="#F3D2C9" stroke-width="0.458609" stroke-miterlimit="10" stroke-linecap="round"/>
<path d="M39.6655 236.029L247.193 337.048" stroke="#F3D2C9" stroke-width="0.458609" stroke-miterlimit="10" stroke-linecap="round"/>
<path d="M58.2733 226.992L266.59 327.724" stroke="#F3D2C9" stroke-width="0.458609" stroke-miterlimit="10" stroke-linecap="round"/>
<path d="M77.527 217.207L285.859 318.342" stroke="#F3D2C9" stroke-width="0.458609" stroke-miterlimit="10" stroke-linecap="round"/>
<path d="M97.0536 207.998L305.787 309.276" stroke="#F3D2C9" stroke-width="0.458609" stroke-miterlimit="10" stroke-linecap="round"/>
<path d="M116.681 198.572L324.567 299.649" stroke="#F3D2C9" stroke-width="0.458609" stroke-miterlimit="10" stroke-linecap="round"/>
<path d="M136.695 189.765L342.471 291.273" stroke="#F3D2C9" stroke-width="0.458609" stroke-miterlimit="10" stroke-linecap="round"/>
<path d="M157.873 179.334L362.888 280.741" stroke="#F3D2C9" stroke-width="0.458609" stroke-miterlimit="10" stroke-linecap="round"/>
<path d="M178.505 169.349L385.286 270.411" stroke="#F3D2C9" stroke-width="0.458609" stroke-miterlimit="10" stroke-linecap="round"/>
<path d="M197.845 159.966L404.483 260.986" stroke="#F3D2C9" stroke-width="0.458609" stroke-miterlimit="10" stroke-linecap="round"/>
<path d="M201.42 347.896L407.713 246.245" stroke="#F3D2C9" stroke-width="0.458609" stroke-miterlimit="10" stroke-linecap="round"/>
<path d="M170.967 333.528L379.256 231.503" stroke="#F3D2C9" stroke-width="0.458609" stroke-miterlimit="10" stroke-linecap="round"/>
<path d="M145.023 321.273L353.082 219.003" stroke="#F3D2C9" stroke-width="0.458609" stroke-miterlimit="10" stroke-linecap="round"/>
<path d="M120.457 309.017L326.534 205.742" stroke="#F3D2C9" stroke-width="0.458609" stroke-miterlimit="10" stroke-linecap="round"/>
<path d="M94.1534 296.287L302.758 193.975" stroke="#F3D2C9" stroke-width="0.458609" stroke-miterlimit="10" stroke-linecap="round"/>
<path d="M69.0847 284.003L277.33 181.863" stroke="#F3D2C9" stroke-width="0.458609" stroke-miterlimit="10" stroke-linecap="round"/>
<path d="M43.9874 271.733L252.735 169.349" stroke="#F3D2C9" stroke-width="0.458609" stroke-miterlimit="10" stroke-linecap="round"/>
<path d="M19.2057 259.305L227.724 157.021" stroke="#F3D2C9" stroke-width="0.458609" stroke-miterlimit="10" stroke-linecap="round"/>
<path d="M1 241.313L216.187 138.371V129.958L1 232.9V241.313Z" fill="#B0AFB0"/>
<path d="M1 241.313L213 343.738V335.325L1 232.9V241.313Z" fill="#838383"/>
<path d="M425 241.313L216.187 138.371V129.958L425 232.9V241.313Z" fill="#B0AFB0"/>
<path d="M213 343.738L425 241.313V232.9L213 335.325V343.738Z" fill="#717272"/>
<path d="M1 232.9L213 335.325L425 232.9L216.187 129.958L1 232.9Z" fill="#B0AFB0"/>
<path d="M212.351 246.201C243.49 246.201 268.732 236.019 268.732 223.459C268.732 210.9 243.49 200.718 212.351 200.718C181.213 200.718 155.971 210.9 155.971 223.459C155.971 236.019 181.213 246.201 212.351 246.201Z" fill="#C6C6C6" stroke="#717272" stroke-width="1.7" stroke-miterlimit="10"/>
<path d="M213.793 234.868C239.608 234.868 260.536 227.226 260.536 217.8C260.536 208.374 239.608 200.733 213.793 200.733C187.977 200.733 167.049 208.374 167.049 217.8C167.049 227.226 187.977 234.868 213.793 234.868Z" stroke="#51A29D" stroke-width="1.3" stroke-miterlimit="10"/>
<path d="M212.982 243.844C243.772 243.844 268.732 234.193 268.732 222.289C268.732 210.384 243.772 200.733 212.982 200.733C182.192 200.733 157.232 210.384 157.232 222.289C157.232 234.193 182.192 243.844 212.982 243.844Z" stroke="#51A29D" stroke-width="1.5" stroke-miterlimit="10"/>
<path d="M224.705 209.349L266.63 229.719" stroke="#51A29D" stroke-width="1.3" stroke-miterlimit="10"/>
<path d="M212.051 231.25C220.35 231.25 227.077 227.755 227.077 223.444C227.077 219.134 220.35 215.639 212.051 215.639C203.753 215.639 197.026 219.134 197.026 223.444C197.026 227.755 203.753 231.25 212.051 231.25Z" fill="#84B6B0" stroke="#84B6B0" stroke-width="0.264557" stroke-miterlimit="10"/>
<path d="M202.459 226.942V224.63C202.657 224.471 202.903 224.384 203.157 224.384C203.411 224.384 203.658 224.471 203.855 224.63V226.942H202.459Z" fill="#AEAEAF" stroke="#AFAFAF" stroke-width="0.176372" stroke-miterlimit="10"/>
<path d="M219.196 227.392V225.096C219.394 224.936 219.64 224.849 219.894 224.849C220.149 224.849 220.395 224.936 220.592 225.096V227.392H219.196Z" fill="#AEAEAF" stroke="#AFAFAF" stroke-width="0.176372" stroke-miterlimit="10"/>
<path d="M219.647 221.343V219.031C219.844 218.872 220.091 218.785 220.345 218.785C220.599 218.785 220.845 218.872 221.043 219.031V221.343H219.647Z" fill="#AEAEAF" stroke="#AFAFAF" stroke-width="0.176372" stroke-miterlimit="10"/>
<path d="M203.225 220.818V218.506C203.423 218.346 203.669 218.259 203.923 218.259C204.177 218.259 204.423 218.346 204.621 218.506V220.818H203.225Z" fill="#AEAEAF" stroke="#AFAFAF" stroke-width="0.176372" stroke-miterlimit="10"/>
<path d="M213.673 226.281C232.732 226.281 248.182 220.179 248.182 212.652C248.182 205.124 232.732 199.022 213.673 199.022C194.613 199.022 179.163 205.124 179.163 212.652C179.163 220.179 194.613 226.281 213.673 226.281Z" stroke="#51A29D" stroke-width="1.3" stroke-miterlimit="10"/>
<path d="M199.052 211.076L219.737 213.732C220.359 213.814 220.992 213.761 221.592 213.578C222.192 213.394 222.746 213.085 223.217 212.67C223.688 212.254 224.064 211.743 224.321 211.171C224.577 210.598 224.709 209.977 224.705 209.349V186.563C224.705 186.563 200.163 188.199 193.618 182.735V204.906C193.62 206.419 194.173 207.879 195.173 209.015C196.173 210.15 197.552 210.882 199.052 211.076Z" fill="#539C97"/>
<path d="M207.623 212.742V221.223C207.622 221.591 207.7 221.955 207.85 222.292C208 222.628 208.219 222.929 208.494 223.174C209.194 223.949 210.125 224.479 211.148 224.687C212.172 224.895 213.235 224.77 214.183 224.33C214.862 223.936 215.423 223.368 215.808 222.685C216.194 222.001 216.389 221.227 216.374 220.442V213.868L207.623 212.742Z" fill="#69908A" stroke="#68908A" stroke-width="0.264557" stroke-miterlimit="10"/>
<path d="M203.255 189.82C205.701 191.444 208.548 192.362 211.482 192.473C214.416 192.585 217.325 191.885 219.887 190.451V183.336C214.338 184.045 208.708 183.771 203.255 182.525V189.82Z" fill="#426B67"/>
<path d="M213.672 212.652L209.424 243.799" stroke="#51A29D" stroke-width="1.3" stroke-miterlimit="10"/>
<path d="M221.163 188.8V182.885L224.165 182.195L224.075 188.83C224.071 188.903 224.039 188.971 223.986 189.022C223.933 189.072 223.863 189.1 223.79 189.1H221.418C221.381 189.098 221.345 189.089 221.312 189.072C221.279 189.056 221.249 189.033 221.225 189.005C221.201 188.977 221.184 188.944 221.173 188.909C221.162 188.873 221.159 188.836 221.163 188.8Z" fill="#CECECE"/>
<path d="M228.353 140.885C208.704 147.25 198.331 140.885 198.331 140.885H228.353Z" fill="#539C97"/>
<path d="M198.347 141.216V172.168C198.347 172.168 219.197 181.084 228.368 169.631V141.441C228.368 141.441 211.976 146.304 198.347 141.216Z" fill="#539C97"/>
<path d="M198.557 129.897C198.557 129.897 210.565 133.965 214.438 132.9C218.311 131.834 225.921 132.179 227.948 129.897C227.948 129.897 226.687 124.974 223.444 125.394C220.202 125.814 203.81 125.019 203.81 125.019L199.532 126.925L198.526 130.108L198.557 129.897Z" fill="#539C97"/>
<path d="M180.949 27.3439L198.332 152.894V172.183L196.005 173.083L176.791 27.9593L180.949 27.3439Z" fill="#A5A5A4" stroke="#A5A5A4" stroke-width="0.264557" stroke-miterlimit="10" stroke-linecap="round"/>
<path d="M193.618 176.566C193.513 176.686 196.11 181.715 205.867 183.035C212.156 183.789 218.528 183.459 224.705 182.06C224.705 182.06 230.109 180.349 231.34 178.862C231.694 178.44 231.925 177.927 232.007 177.382C232.089 176.836 232.019 176.279 231.805 175.77C231.805 175.77 226.327 179.058 215.444 180.859C215.444 180.859 204.021 180.409 200.343 178.592C198.209 177.526 196.019 176.574 193.783 175.74L193.618 176.566Z" fill="#539C97"/>
<path d="M198.557 130.348L198.797 140.855C198.797 140.855 211.601 147.22 228.023 140.45V130.348C218.441 133.423 208.138 133.423 198.557 130.348Z" fill="#539C97"/>
<path d="M200.523 181.82C200.523 181.82 214.033 186.323 227.542 181.084C229.209 180.439 231.851 179.583 231.851 177.406V174.179C230.906 172.531 229.745 171.016 228.398 169.676V131.248C228.398 131.248 229.119 128.516 224.75 125.334" stroke="#51A29D" stroke-width="0.264557" stroke-miterlimit="10"/>
<path d="M202.309 125.334C202.309 125.334 198.857 126.835 198.316 129.837V172.213" stroke="#51A29D" stroke-width="0.264557" stroke-miterlimit="10"/>
<path d="M213.522 127.751C219.699 127.751 224.705 126.797 224.705 125.619C224.705 124.442 219.699 123.488 213.522 123.488C207.346 123.488 202.339 124.442 202.339 125.619C202.339 126.797 207.346 127.751 213.522 127.751Z" fill="#84C3BB" stroke="#84C3BB" stroke-width="0.264557" stroke-miterlimit="10"/>
<path d="M193.303 175.455C193.303 175.455 213.162 187.629 231.805 175.455" stroke="#51A29D" stroke-width="0.264557" stroke-miterlimit="10"/>
<path d="M193.603 175.635C193.603 175.635 205.612 181.219 210.985 180.859C216.359 180.499 222.994 179.928 225.846 178.547C228.036 177.462 230.165 176.259 232.226 174.945L231.64 173.864L228.233 169.901C226.786 171.53 225.03 172.855 223.066 173.799C221.102 174.742 218.97 175.285 216.795 175.395C212.727 175.559 208.656 175.165 204.696 174.224L199.517 172.723C198.338 172.424 197.09 172.563 196.005 173.113C196.005 173.113 192.477 174.299 193.603 175.635Z" fill="#539C97"/>
<path d="M200.763 144.653V173.083" stroke="#3A5F5B" stroke-width="0.264557" stroke-miterlimit="10" stroke-linecap="round"/>
<path d="M203.255 145.404V173.864" stroke="#3A5F5B" stroke-width="0.264557" stroke-miterlimit="10" stroke-linecap="round"/>
<path d="M206.167 145.989V174.599" stroke="#3A5F5B" stroke-width="0.264557" stroke-miterlimit="10" stroke-linecap="round"/>
<path d="M209.154 146.394V174.599" stroke="#3A5F5B" stroke-width="0.264557" stroke-miterlimit="10" stroke-linecap="round"/>
<path d="M211.991 154.875V175.455" stroke="#3A5F5B" stroke-width="0.264557" stroke-miterlimit="10" stroke-linecap="round"/>
<path d="M215.069 175.455V154.875" stroke="#3A5F5B" stroke-width="0.264557" stroke-miterlimit="10" stroke-linecap="round"/>
<path d="M218.161 146.259V175.26" stroke="#3A5F5B" stroke-width="0.264557" stroke-miterlimit="10" stroke-linecap="round"/>
<path d="M221.163 174.554V145.614" stroke="#3A5F5B" stroke-width="0.264557" stroke-miterlimit="10" stroke-linecap="round"/>
<path d="M224.165 144.983V173.173" stroke="#3A5F5B" stroke-width="0.264557" stroke-miterlimit="10" stroke-linecap="round"/>
<path d="M198.347 129.792C203.077 131.803 208.165 132.84 213.305 132.84C218.445 132.84 223.532 131.803 228.263 129.792" stroke="#51A29D" stroke-width="0.264557" stroke-miterlimit="10"/>
<path d="M198.391 140.765C203.122 142.776 208.209 143.813 213.35 143.813C218.49 143.813 223.577 142.776 228.308 140.765" stroke="#51A29D" stroke-width="0.264557" stroke-miterlimit="10"/>
<path d="M200.808 181.865C200.808 181.865 195.735 180.994 193.663 176.911C191.802 173.263 198.392 172.168 198.392 172.168C198.392 172.168 219.302 181.264 228.413 169.631" stroke="#51A29D" stroke-width="0.264557" stroke-miterlimit="10"/>
<path d="M218.581 146.259H208.734V154.875H218.581V146.259Z" fill="#E3D04A" stroke="#E3D04A" stroke-width="0.264557" stroke-linejoin="round"/>
<path d="M194.233 173.864L196.005 173.053L192.522 147.805L176.791 27.9593C176.78 27.8792 176.751 27.8025 176.707 27.7347C176.662 27.6668 176.604 27.6095 176.535 27.5666C176.467 27.5237 176.39 27.4963 176.309 27.4863C176.229 27.4764 176.147 27.4841 176.07 27.509L174.329 28.0344L194.233 173.864Z" fill="#828281" stroke="#828281" stroke-width="0.264557" stroke-miterlimit="10" stroke-linecap="round"/>
<path d="M193.933 191.997L187.194 187.914C187.194 187.914 184.191 185.812 190.196 183.996L193.678 182.72" fill="#539C97"/>
<path d="M188.034 187.283L193.603 172.063C193.655 171.921 193.651 171.765 193.592 171.626C193.534 171.487 193.425 171.375 193.288 171.312L192.147 170.802C192.101 170.779 192.051 170.767 192 170.765C191.949 170.762 191.898 170.771 191.85 170.789C191.802 170.807 191.758 170.835 191.722 170.871C191.685 170.907 191.656 170.949 191.637 170.997L185.978 185.647C185.913 185.806 185.896 185.979 185.928 186.147C185.96 186.315 186.04 186.47 186.158 186.593L186.983 187.494C187.057 187.572 187.149 187.63 187.251 187.663C187.353 187.696 187.462 187.702 187.567 187.681C187.672 187.66 187.771 187.612 187.852 187.543C187.934 187.473 187.997 187.384 188.034 187.283Z" fill="#8D8981" stroke="#8C8880" stroke-width="0.264557" stroke-miterlimit="10"/>
<path d="M189.775 171.237L185.617 171.702L177.992 168.7C177.992 168.7 175.815 168.055 177.001 170.426C177.992 172.408 183.651 174.93 185.452 175.62C185.812 175.747 186.204 175.747 186.563 175.62L190.376 174.269C190.524 174.215 190.648 174.109 190.725 173.972C190.802 173.834 190.827 173.673 190.796 173.519L190.391 171.702C190.365 171.562 190.288 171.436 190.174 171.35C190.06 171.264 189.918 171.223 189.775 171.237Z" fill="#201600" stroke="#201600" stroke-width="0.264557" stroke-miterlimit="10" stroke-linecap="round"/>
<path d="M151.663 5.54826L196.89 7.93497C196.89 7.93497 198.391 5.84847 196.245 4.93282L152.143 2.75626L151.663 5.54826Z" fill="#ADAEA4" stroke="#ADAEA4" stroke-width="0.176372" stroke-miterlimit="10" stroke-linecap="round"/>
<path d="M196.47 180.874C196.47 180.874 182.675 177.872 186.383 166.404C186.49 166.065 186.641 165.742 186.833 165.443C187.824 163.942 191.186 159.934 198.346 162.171" stroke="#252524" stroke-width="0.352743" stroke-miterlimit="10" stroke-linecap="round"/>
<path d="M151.978 2.18585C151.882 1.85683 151.686 1.56589 151.417 1.3534C151.148 1.14091 150.82 1.0174 150.477 1H133.41C133.072 1 132.747 1.13443 132.508 1.37371C132.268 1.61299 132.134 1.93752 132.134 2.27591V4.07721C132.132 4.45062 132.27 4.81133 132.519 5.08889C132.769 5.36646 133.113 5.54094 133.485 5.57828L150.117 6.43389C150.52 6.46019 150.918 6.33211 151.23 6.07564C151.543 5.81918 151.746 5.45353 151.798 5.0529L152.053 3.28164C152.104 2.91512 152.079 2.54197 151.978 2.18585Z" fill="#243E43" stroke="#243E43" stroke-width="0.176372" stroke-miterlimit="10" stroke-linecap="round"/>
<path d="M196.68 7.93497C196.77 8.26907 196.964 8.56583 197.234 8.78189C197.504 8.99794 197.836 9.12196 198.181 9.13583L215.204 9.43604C215.37 9.44003 215.536 9.41085 215.692 9.35021C215.847 9.28957 215.989 9.19867 216.109 9.08278C216.229 8.96689 216.325 8.82831 216.391 8.67508C216.458 8.52185 216.493 8.35703 216.495 8.19015V6.38886C216.498 6.02236 216.367 5.66739 216.126 5.39087C215.885 5.11436 215.552 4.93542 215.189 4.88778L198.602 3.56684C198.197 3.53506 197.795 3.65621 197.476 3.90635C197.156 4.15649 196.942 4.51741 196.876 4.91781L196.605 6.62903C196.531 7.0644 196.557 7.51098 196.68 7.93497Z" fill="#243E43" stroke="#243E43" stroke-width="0.176372" stroke-miterlimit="10" stroke-linecap="round"/>
<path d="M176.461 27.3139H180.964C181.355 27.3062 181.731 27.1673 182.034 26.9195C182.336 26.6718 182.546 26.3295 182.63 25.9479L186.383 9.88637C186.45 9.51414 186.45 9.13279 186.383 8.76056L185.662 2.6812C185.622 2.34539 185.462 2.03549 185.211 1.8091C184.959 1.58272 184.634 1.45523 184.296 1.45032L166.629 1" stroke="#4FA9A4" stroke-width="0.264557" stroke-miterlimit="10" stroke-linecap="round"/>
<path d="M176.071 27.449L181.64 27.1337L182.841 25.0322L186.458 9.43605L185.362 1.93067C184.209 1.54827 183.004 1.34575 181.79 1.33024L167.049 1L167.875 10.0065L176.071 27.449Z" fill="#4FA9A4"/>
<path d="M167.049 1.00001H165.203C165.09 0.999522 164.978 1.0227 164.874 1.06804C164.771 1.11339 164.678 1.1799 164.601 1.26331C164.525 1.34672 164.467 1.44517 164.431 1.55235C164.395 1.65953 164.382 1.77306 164.392 1.88564L164.993 9.0758C165.018 9.27818 165.073 9.47557 165.158 9.66122L174.089 27.554C174.157 27.6862 174.27 27.7895 174.408 27.8446C174.546 27.8998 174.699 27.9032 174.84 27.8543L176.161 27.4189C176.326 27.4189 176.671 27.4189 176.326 27.0287L167.965 9.01575C167.883 8.84582 167.833 8.6629 167.815 8.47537L167.049 1.00001Z" fill="#4B8078" stroke="#4B8078" stroke-width="0.264557" stroke-miterlimit="10" stroke-linecap="round"/>
<path d="M166.283 9.13583L148.316 12.4832" stroke="#4FA9A4" stroke-width="0.264557" stroke-miterlimit="10" stroke-linecap="round"/>
<path d="M168.82 3.43174L169.571 9.13583C169.582 9.20342 169.617 9.26488 169.669 9.30897C169.721 9.35306 169.788 9.37685 169.856 9.376L184.297 9.82632C184.35 9.85239 184.41 9.86028 184.468 9.8488C184.526 9.83732 184.579 9.80709 184.618 9.76276C184.657 9.71844 184.681 9.66246 184.685 9.60343C184.689 9.54441 184.674 9.4856 184.642 9.43604L183.831 3.74696C183.816 3.68008 183.78 3.61957 183.729 3.57385C183.678 3.52812 183.614 3.49944 183.546 3.49178L169.121 3.13152C169.081 3.12935 169.041 3.13564 169.003 3.14996C168.966 3.16428 168.932 3.18632 168.904 3.21464C168.875 3.24296 168.853 3.27693 168.839 3.31433C168.825 3.35174 168.818 3.39174 168.82 3.43174Z" fill="#201600"/>
<path d="M163.777 3.32668L165.278 3.40173C165.278 3.40173 166.599 3.40173 166.584 4.60259V5.39816C166.593 5.51813 166.576 5.63868 166.534 5.75136C166.492 5.86405 166.425 5.96615 166.34 6.05052C166.254 6.13488 166.151 6.19948 166.037 6.23977C165.924 6.28007 165.803 6.29509 165.683 6.2838L163.852 6.19373" fill="#ADAEA4"/>
<path d="M163.777 3.32668L165.278 3.40173C165.278 3.40173 166.599 3.40173 166.584 4.60259V5.39816C166.593 5.51813 166.576 5.63868 166.534 5.75136C166.492 5.86405 166.425 5.96615 166.34 6.05052C166.254 6.13488 166.151 6.19948 166.037 6.23977C165.924 6.28007 165.803 6.29509 165.683 6.2838L163.852 6.19373" stroke="#ADAEA4" stroke-width="0.176372" stroke-miterlimit="10" stroke-linecap="round"/>
<path d="M209.68 153.93H217.74L213.703 146.95L209.68 153.93Z" fill="#E3D04A" stroke="#201600" stroke-width="0.176372" stroke-linejoin="round"/>
<path d="M213.05 148.48H213.201V148.852L213.172 149.036H213.079L213.05 148.852V148.48ZM213.034 149.196C213.034 149.17 213.042 149.149 213.059 149.134C213.075 149.118 213.097 149.11 213.124 149.11C213.153 149.11 213.175 149.118 213.192 149.134C213.209 149.149 213.217 149.17 213.217 149.196C213.217 149.222 213.209 149.243 213.192 149.259C213.175 149.275 213.153 149.283 213.124 149.283C213.097 149.283 213.075 149.275 213.059 149.259C213.042 149.243 213.034 149.222 213.034 149.196Z" fill="#201600"/>
<path d="M226.297 177.857L222.844 174.554L223.234 178.908L226.297 177.857Z" fill="#548F86"/>
<path d="M196.47 176.551L201.244 173.864L200.403 178.052L196.47 176.551Z" fill="#548F86"/>
<path d="M211.061 175.965L211.991 180.288L209.635 180.153L211.061 175.965Z" fill="#548F86"/>
<path d="M220.322 192.913V189.64C220.32 189.562 220.334 189.484 220.363 189.412C220.391 189.339 220.434 189.272 220.488 189.216C220.543 189.161 220.608 189.116 220.68 189.086C220.752 189.055 220.83 189.04 220.908 189.04H223.82C223.933 189.04 224.046 189.062 224.151 189.106C224.256 189.15 224.351 189.215 224.43 189.296C224.51 189.377 224.573 189.473 224.615 189.578C224.657 189.684 224.677 189.797 224.675 189.91V193.093L220.322 192.913Z" fill="#8D8981" stroke="#8C8880" stroke-width="0.264557" stroke-miterlimit="10"/>
<path d="M220.322 213.042V193.093C220.985 193.47 221.735 193.669 222.499 193.669C223.262 193.669 224.012 193.47 224.675 193.093V213.177C224.677 213.253 224.664 213.329 224.636 213.4C224.608 213.471 224.567 213.536 224.514 213.59C224.46 213.645 224.397 213.688 224.327 213.718C224.256 213.747 224.181 213.763 224.105 213.762H221.103C221.003 213.773 220.902 213.762 220.806 213.731C220.71 213.699 220.623 213.648 220.549 213.579C220.475 213.511 220.416 213.428 220.377 213.335C220.338 213.243 220.319 213.143 220.322 213.042Z" fill="#201600" stroke="#201600" stroke-width="0.264557" stroke-miterlimit="10"/>
<path d="M230.8 175.47L228.353 170.426L232.046 174.644L230.8 175.47Z" fill="#548F86"/>
<path d="M190.496 172.168L192.192 171.867C192.287 171.868 192.38 171.897 192.459 171.951C192.538 172.005 192.599 172.081 192.634 172.169C192.67 172.258 192.678 172.355 192.658 172.448C192.638 172.542 192.591 172.627 192.522 172.693L190.706 173.083L190.496 172.168Z" fill="#201600" stroke="#201600" stroke-width="0.264557" stroke-miterlimit="10" stroke-linecap="round"/>
<path d="M187.179 186.848C187.51 186.848 187.779 186.579 187.779 186.248C187.779 185.916 187.51 185.647 187.179 185.647C186.847 185.647 186.578 185.916 186.578 186.248C186.578 186.579 186.847 186.848 187.179 186.848Z" fill="#201600"/>
</svg>
