<svg width="138" height="248" viewBox="0 0 138 248" fill="none" xmlns="http://www.w3.org/2000/svg">
<path d="M80.3515 246.201C111.49 246.201 136.732 236.019 136.732 223.459C136.732 210.9 111.49 200.718 80.3515 200.718C49.2134 200.718 23.9711 210.9 23.9711 223.459C23.9711 236.019 49.2134 246.201 80.3515 246.201Z" fill="#C6C6C6" stroke="#717272" stroke-width="1.7" stroke-miterlimit="10"/>
<path d="M81.7927 234.868C107.608 234.868 128.536 227.226 128.536 217.8C128.536 208.374 107.608 200.733 81.7927 200.733C55.977 200.733 35.0492 208.374 35.0492 217.8C35.0492 227.226 55.977 234.868 81.7927 234.868Z" stroke="#51A29D" stroke-width="1.3" stroke-miterlimit="10"/>
<path d="M80.9821 243.844C111.772 243.844 136.732 234.193 136.732 222.289C136.732 210.384 111.772 200.733 80.9821 200.733C50.1922 200.733 25.2321 210.384 25.2321 222.289C25.2321 234.193 50.1922 243.844 80.9821 243.844Z" stroke="#51A29D" stroke-width="1.5" stroke-miterlimit="10"/>
<path d="M92.7053 209.349L134.63 229.719" stroke="#51A29D" stroke-width="1.3" stroke-miterlimit="10"/>
<path d="M80.0513 231.25C88.3498 231.25 95.0771 227.755 95.0771 223.444C95.0771 219.134 88.3498 215.639 80.0513 215.639C71.7528 215.639 65.0255 219.134 65.0255 223.444C65.0255 227.755 71.7528 231.25 80.0513 231.25Z" fill="#84B6B0" stroke="#84B6B0" stroke-width="0.264557" stroke-miterlimit="10"/>
<path d="M70.4594 226.942V224.63C70.657 224.471 70.9033 224.384 71.1574 224.384C71.4114 224.384 71.6577 224.471 71.8554 224.63V226.942H70.4594Z" fill="#AEAEAF" stroke="#AFAFAF" stroke-width="0.176372" stroke-miterlimit="10"/>
<path d="M87.1965 227.392V225.096C87.3941 224.936 87.6404 224.849 87.8945 224.849C88.1485 224.849 88.3949 224.936 88.5925 225.096V227.392H87.1965Z" fill="#AEAEAF" stroke="#AFAFAF" stroke-width="0.176372" stroke-miterlimit="10"/>
<path d="M87.6468 221.343V219.031C87.8444 218.872 88.0908 218.785 88.3448 218.785C88.5988 218.785 88.8452 218.872 89.0428 219.031V221.343H87.6468Z" fill="#AEAEAF" stroke="#AFAFAF" stroke-width="0.176372" stroke-miterlimit="10"/>
<path d="M71.225 220.818V218.506C71.4226 218.346 71.669 218.259 71.923 218.259C72.1771 218.259 72.4234 218.346 72.621 218.506V220.818H71.225Z" fill="#AEAEAF" stroke="#AFAFAF" stroke-width="0.176372" stroke-miterlimit="10"/>
<path d="M81.6725 226.281C100.732 226.281 116.182 220.179 116.182 212.652C116.182 205.124 100.732 199.022 81.6725 199.022C62.6133 199.022 47.1628 205.124 47.1628 212.652C47.1628 220.179 62.6133 226.281 81.6725 226.281Z" stroke="#51A29D" stroke-width="1.3" stroke-miterlimit="10"/>
<path d="M67.052 211.076L87.7368 213.732C88.3591 213.814 88.9917 213.761 89.5919 213.578C90.1922 213.394 90.7462 213.085 91.2169 212.67C91.6875 212.254 92.0639 211.743 92.3206 211.171C92.5773 210.598 92.7085 209.977 92.7054 209.349V186.563C92.7054 186.563 68.1628 188.199 61.6181 182.735V204.906C61.6203 206.419 62.1729 207.879 63.1728 209.015C64.1727 210.15 65.5516 210.882 67.052 211.076Z" fill="#539C97"/>
<path d="M75.6231 212.742V221.223C75.6224 221.591 75.6996 221.955 75.8497 222.292C75.9997 222.628 76.2192 222.929 76.4937 223.174C77.1944 223.949 78.1247 224.479 79.1483 224.687C80.1719 224.895 81.2353 224.77 82.1828 224.33C82.8617 223.936 83.4229 223.368 83.8083 222.685C84.1937 222.001 84.3891 221.227 84.3743 220.442V213.868L75.6231 212.742Z" fill="#69908A" stroke="#68908A" stroke-width="0.264557" stroke-miterlimit="10"/>
<path d="M71.2549 189.82C73.7014 191.444 76.5481 192.362 79.4823 192.473C82.4165 192.585 85.3245 191.885 87.8869 190.451V183.336C82.3383 184.045 76.7082 183.771 71.2549 182.525V189.82Z" fill="#426B67"/>
<path d="M81.6724 212.652L77.4243 243.799" stroke="#51A29D" stroke-width="1.3" stroke-miterlimit="10"/>
<path d="M89.1628 188.8V182.885L92.1649 182.195L92.0749 188.83C92.071 188.903 92.0393 188.971 91.9862 189.022C91.9331 189.072 91.8628 189.1 91.7897 189.1H89.418C89.3811 189.098 89.345 189.089 89.3119 189.072C89.2787 189.056 89.2493 189.033 89.2254 189.005C89.2015 188.977 89.1836 188.944 89.1728 188.909C89.1621 188.873 89.1586 188.836 89.1628 188.8Z" fill="#CECECE"/>
<path d="M96.3529 140.885C76.7039 147.25 66.3314 140.885 66.3314 140.885H96.3529Z" fill="#539C97"/>
<path d="M66.3466 141.216V172.168C66.3466 172.168 87.1965 181.084 96.3681 169.631V141.441C96.3681 141.441 79.9763 146.304 66.3466 141.216Z" fill="#539C97"/>
<path d="M66.5565 129.897C66.5565 129.897 78.5651 133.965 82.4379 132.9C86.3107 131.834 93.9211 132.179 95.9476 129.897C95.9476 129.897 94.6867 124.974 91.4444 125.394C88.202 125.814 71.8103 125.019 71.8103 125.019L67.5322 126.925L66.5265 130.108L66.5565 129.897Z" fill="#539C97"/>
<path d="M48.9491 27.3439L66.3316 152.894V172.183L64.0049 173.083L44.7911 27.9593L48.9491 27.3439Z" fill="#A5A5A4" stroke="#A5A5A4" stroke-width="0.264557" stroke-miterlimit="10" stroke-linecap="round"/>
<path d="M61.6181 176.566C61.513 176.686 64.1099 181.715 73.8669 183.035C80.156 183.789 86.5277 183.459 92.7054 182.06C92.7054 182.06 98.1092 180.349 99.3401 178.862C99.6943 178.44 99.9251 177.927 100.007 177.382C100.089 176.836 100.019 176.279 99.8055 175.77C99.8055 175.77 94.3265 179.058 83.4437 180.859C83.4437 180.859 72.0205 180.409 68.3429 178.592C66.2086 177.526 64.0189 176.574 61.7832 175.74L61.6181 176.566Z" fill="#539C97"/>
<path d="M66.5566 130.348L66.7968 140.855C66.7968 140.855 79.601 147.22 96.0228 140.45V130.348C86.4414 133.423 76.138 133.423 66.5566 130.348Z" fill="#539C97"/>
<path d="M68.5231 181.82C68.5231 181.82 82.0328 186.323 95.5424 181.084C97.2086 180.439 99.8505 179.583 99.8505 177.406V174.179C98.906 172.531 97.7448 171.016 96.398 169.676V131.248C96.398 131.248 97.1186 128.516 92.7504 125.334" stroke="#51A29D" stroke-width="0.264557" stroke-miterlimit="10"/>
<path d="M70.3093 125.334C70.3093 125.334 66.8568 126.835 66.3164 129.837V172.213" stroke="#51A29D" stroke-width="0.264557" stroke-miterlimit="10"/>
<path d="M81.5224 127.751C87.6986 127.751 92.7054 126.797 92.7054 125.619C92.7054 124.442 87.6986 123.488 81.5224 123.488C75.3462 123.488 70.3394 124.442 70.3394 125.619C70.3394 126.797 75.3462 127.751 81.5224 127.751Z" fill="#84C3BB" stroke="#84C3BB" stroke-width="0.264557" stroke-miterlimit="10"/>
<path d="M61.3028 175.455C61.3028 175.455 81.162 187.629 99.8054 175.455" stroke="#51A29D" stroke-width="0.264557" stroke-miterlimit="10"/>
<path d="M61.603 175.635C61.603 175.635 73.6116 181.219 78.9854 180.859C84.3593 180.499 90.994 179.928 93.8461 178.547C96.0358 177.462 98.1654 176.259 100.226 174.945L99.6402 173.864L96.2328 169.901C94.7865 171.53 93.0302 172.855 91.0663 173.799C89.1025 174.742 86.9704 175.285 84.7946 175.395C80.7272 175.559 76.6565 175.165 72.6959 174.224L67.5172 172.723C66.3377 172.424 65.0897 172.563 64.0047 173.113C64.0047 173.113 60.4771 174.299 61.603 175.635Z" fill="#539C97"/>
<path d="M68.7634 144.653V173.083" stroke="#3A5F5B" stroke-width="0.264557" stroke-miterlimit="10" stroke-linecap="round"/>
<path d="M71.2549 145.404V173.864" stroke="#3A5F5B" stroke-width="0.264557" stroke-miterlimit="10" stroke-linecap="round"/>
<path d="M74.1671 145.989V174.599" stroke="#3A5F5B" stroke-width="0.264557" stroke-miterlimit="10" stroke-linecap="round"/>
<path d="M77.1542 146.394V174.599" stroke="#3A5F5B" stroke-width="0.264557" stroke-miterlimit="10" stroke-linecap="round"/>
<path d="M79.9912 154.875V175.455" stroke="#3A5F5B" stroke-width="0.264557" stroke-miterlimit="10" stroke-linecap="round"/>
<path d="M83.0686 175.455V154.875" stroke="#3A5F5B" stroke-width="0.264557" stroke-miterlimit="10" stroke-linecap="round"/>
<path d="M86.1606 146.259V175.26" stroke="#3A5F5B" stroke-width="0.264557" stroke-miterlimit="10" stroke-linecap="round"/>
<path d="M89.1628 174.554V145.614" stroke="#3A5F5B" stroke-width="0.264557" stroke-miterlimit="10" stroke-linecap="round"/>
<path d="M92.1652 144.983V173.173" stroke="#3A5F5B" stroke-width="0.264557" stroke-miterlimit="10" stroke-linecap="round"/>
<path d="M66.3466 129.792C71.0771 131.803 76.1645 132.84 81.3048 132.84C86.445 132.84 91.5325 131.803 96.263 129.792" stroke="#51A29D" stroke-width="0.264557" stroke-miterlimit="10"/>
<path d="M66.3915 140.765C71.122 142.776 76.2095 143.813 81.3497 143.813C86.4899 143.813 91.5774 142.776 96.3079 140.765" stroke="#51A29D" stroke-width="0.264557" stroke-miterlimit="10"/>
<path d="M68.8083 181.865C68.8083 181.865 63.7347 180.994 61.6632 176.911C59.8018 173.263 66.3916 172.168 66.3916 172.168C66.3916 172.168 87.3015 181.264 96.4131 169.631" stroke="#51A29D" stroke-width="0.264557" stroke-miterlimit="10"/>
<path d="M86.581 146.259H76.7339V154.875H86.581V146.259Z" fill="#E3D04A" stroke="#E3D04A" stroke-width="0.264557" stroke-linejoin="round"/>
<path d="M62.2334 173.864L64.0047 173.053L60.5222 147.805L44.7909 27.9593C44.7795 27.8792 44.7508 27.8025 44.7066 27.7347C44.6625 27.6668 44.6041 27.6095 44.5354 27.5666C44.4668 27.5237 44.3896 27.4963 44.3093 27.4863C44.229 27.4764 44.1474 27.4841 44.0704 27.509L42.3292 28.0344L62.2334 173.864Z" fill="#828281" stroke="#828281" stroke-width="0.264557" stroke-miterlimit="10" stroke-linecap="round"/>
<path d="M61.9334 191.997L55.1936 187.914C55.1936 187.914 52.1914 185.812 58.1957 183.996L61.6782 182.72" fill="#539C97"/>
<path d="M56.0342 187.283L61.6032 172.063C61.6545 171.921 61.6506 171.765 61.5922 171.626C61.5338 171.487 61.4252 171.375 61.2879 171.312L60.1471 170.802C60.101 170.779 60.0509 170.767 59.9998 170.765C59.9486 170.762 59.8976 170.771 59.8498 170.789C59.802 170.807 59.7584 170.835 59.7218 170.871C59.6852 170.907 59.6562 170.949 59.6368 170.997L53.9777 185.647C53.9133 185.806 53.8961 185.979 53.9281 186.147C53.96 186.315 54.0398 186.47 54.1578 186.593L54.9834 187.494C55.0568 187.572 55.1489 187.63 55.251 187.663C55.3532 187.696 55.4621 187.702 55.5673 187.681C55.6725 187.66 55.7706 187.612 55.8523 187.543C55.934 187.473 55.9966 187.384 56.0342 187.283Z" fill="#8D8981" stroke="#8C8880" stroke-width="0.264557" stroke-miterlimit="10"/>
<path d="M57.7753 171.237L53.6173 171.702L45.9919 168.7C45.9919 168.7 43.8153 168.055 45.0012 170.426C45.9919 172.408 51.6509 174.93 53.4522 175.62C53.8116 175.747 54.2037 175.747 54.563 175.62L58.3758 174.269C58.5239 174.215 58.6477 174.109 58.7248 173.972C58.8019 173.834 58.8272 173.673 58.7961 173.519L58.3908 171.702C58.3651 171.562 58.2876 171.436 58.1737 171.35C58.0597 171.264 57.9175 171.223 57.7753 171.237Z" fill="#201600" stroke="#201600" stroke-width="0.264557" stroke-miterlimit="10" stroke-linecap="round"/>
<path d="M19.6629 5.54826L64.8903 7.93497C64.8903 7.93497 66.3914 5.84847 64.2448 4.93282L20.1432 2.75626L19.6629 5.54826Z" fill="#ADAEA4" stroke="#ADAEA4" stroke-width="0.176372" stroke-miterlimit="10" stroke-linecap="round"/>
<path d="M64.4701 180.874C64.4701 180.874 50.6752 177.872 54.3829 166.404C54.4896 166.065 54.641 165.742 54.8332 165.443C55.8239 163.942 59.1863 159.934 66.3465 162.171" stroke="#252524" stroke-width="0.352743" stroke-miterlimit="10" stroke-linecap="round"/>
<path d="M19.9783 2.18585C19.8821 1.85683 19.6859 1.56589 19.417 1.3534C19.148 1.14091 18.8195 1.0174 18.4772 1H1.40997C1.07157 1 0.747039 1.13443 0.507759 1.37371C0.268478 1.61299 0.134052 1.93752 0.134052 2.27591V4.07721C0.132181 4.45062 0.269562 4.81133 0.519368 5.08889C0.769175 5.36646 1.11347 5.54094 1.48502 5.57828L18.1169 6.43389C18.5201 6.46019 18.9182 6.33211 19.2305 6.07564C19.5427 5.81918 19.7456 5.45353 19.7981 5.0529L20.0533 3.28164C20.1045 2.91512 20.0789 2.54197 19.9783 2.18585Z" fill="#243E43" stroke="#243E43" stroke-width="0.176372" stroke-miterlimit="10" stroke-linecap="round"/>
<path d="M64.6804 7.93497C64.7698 8.26907 64.9637 8.56583 65.2337 8.78189C65.5038 8.99794 65.8359 9.12196 66.1815 9.13583L83.2037 9.43604C83.3705 9.44003 83.5365 9.41085 83.6919 9.35021C83.8474 9.28957 83.9893 9.19867 84.1094 9.08278C84.2295 8.96689 84.3254 8.82831 84.3915 8.67508C84.4576 8.52185 84.4926 8.35703 84.4946 8.19015V6.38886C84.4977 6.02236 84.3666 5.66739 84.126 5.39087C83.8855 5.11436 83.5521 4.93542 83.1886 4.88778L66.6018 3.56684C66.1971 3.53506 65.7953 3.65621 65.4757 3.90635C65.1561 4.15649 64.9419 4.51741 64.8755 4.91781L64.6053 6.62903C64.531 7.0644 64.5567 7.51098 64.6804 7.93497Z" fill="#243E43" stroke="#243E43" stroke-width="0.176372" stroke-miterlimit="10" stroke-linecap="round"/>
<path d="M44.4607 27.3139H48.9639C49.3547 27.3062 49.7314 27.1673 50.0337 26.9195C50.3359 26.6718 50.546 26.3295 50.6301 25.9479L54.3828 9.88637C54.4504 9.51414 54.4504 9.13279 54.3828 8.76056L53.6623 2.6812C53.6223 2.34539 53.4618 2.03549 53.2106 1.8091C52.9594 1.58272 52.6345 1.45523 52.2963 1.45032L34.6287 1" stroke="#4FA9A4" stroke-width="0.264557" stroke-miterlimit="10" stroke-linecap="round"/>
<path d="M44.0707 27.449L49.6397 27.1337L50.8405 25.0322L54.4581 9.43605L53.3623 1.93067C52.2094 1.54827 51.0044 1.34575 49.7898 1.33024L35.0492 1L35.8748 10.0065L44.0707 27.449Z" fill="#4FA9A4"/>
<path d="M35.0491 1.00001H33.2028C33.0897 0.999522 32.9778 1.0227 32.8742 1.06804C32.7707 1.11339 32.6777 1.1799 32.6014 1.26331C32.525 1.34672 32.467 1.44517 32.431 1.55235C32.3949 1.65953 32.3817 1.77306 32.3922 1.88564L32.9926 9.0758C33.0177 9.27818 33.0734 9.47557 33.1578 9.66122L42.0892 27.554C42.157 27.6862 42.2703 27.7895 42.4082 27.8446C42.5462 27.8998 42.6994 27.9032 42.8397 27.8543L44.1607 27.4189C44.3258 27.4189 44.671 27.4189 44.3258 27.0287L35.9648 9.01575C35.8834 8.84582 35.8326 8.6629 35.8147 8.47537L35.0491 1.00001Z" fill="#4B8078" stroke="#4B8078" stroke-width="0.264557" stroke-miterlimit="10" stroke-linecap="round"/>
<path d="M34.2834 9.13583L16.3156 12.4832" stroke="#4FA9A4" stroke-width="0.264557" stroke-miterlimit="10" stroke-linecap="round"/>
<path d="M36.8205 3.43174L37.571 9.13583C37.5818 9.20342 37.6166 9.26488 37.6689 9.30897C37.7213 9.35306 37.7878 9.37685 37.8562 9.376L52.2966 9.82632C52.3497 9.85239 52.4099 9.86028 52.468 9.8488C52.5261 9.83732 52.5787 9.80709 52.618 9.76276C52.6572 9.71844 52.6807 9.66246 52.6851 9.60343C52.6894 9.54441 52.6742 9.4856 52.6418 9.43604L51.8312 3.74696C51.8161 3.68008 51.7805 3.61957 51.7294 3.57385C51.6783 3.52812 51.6142 3.49944 51.546 3.49178L37.1207 3.13152C37.0807 3.12935 37.0407 3.13564 37.0033 3.14996C36.9659 3.16428 36.9319 3.18632 36.9036 3.21464C36.8753 3.24296 36.8532 3.27693 36.8389 3.31433C36.8246 3.35174 36.8183 3.39174 36.8205 3.43174Z" fill="#201600"/>
<path d="M31.7769 3.32668L33.2779 3.40173C33.2779 3.40173 34.5989 3.40173 34.5839 4.60259V5.39816C34.5932 5.51813 34.5761 5.63868 34.5339 5.75136C34.4917 5.86405 34.4254 5.96615 34.3396 6.05052C34.2538 6.13488 34.1506 6.19948 34.0372 6.23977C33.9238 6.28007 33.803 6.29509 33.6832 6.2838L31.8519 6.19373" fill="#ADAEA4"/>
<path d="M31.7769 3.32668L33.2779 3.40173C33.2779 3.40173 34.5989 3.40173 34.5839 4.60259V5.39816C34.5932 5.51813 34.5761 5.63868 34.5339 5.75136C34.4917 5.86405 34.4254 5.96615 34.3396 6.05052C34.2538 6.13488 34.1506 6.19948 34.0372 6.23977C33.9238 6.28007 33.803 6.29509 33.6832 6.2838L31.8519 6.19373" stroke="#ADAEA4" stroke-width="0.176372" stroke-miterlimit="10" stroke-linecap="round"/>
<path d="M77.6797 153.93H85.7405L81.7026 146.95L77.6797 153.93Z" fill="#E3D04A" stroke="#201600" stroke-width="0.176372" stroke-linejoin="round"/>
<path d="M81.0498 148.48H81.201V148.852L81.1717 149.036H81.0791L81.0498 148.852V148.48ZM81.034 149.196C81.034 149.17 81.0422 149.149 81.0588 149.134C81.0754 149.118 81.0972 149.11 81.1243 149.11C81.1529 149.11 81.1754 149.118 81.192 149.134C81.2085 149.149 81.2168 149.17 81.2168 149.196C81.2168 149.222 81.2085 149.243 81.192 149.259C81.1754 149.275 81.1529 149.283 81.1243 149.283C81.0972 149.283 81.0754 149.275 81.0588 149.259C81.0422 149.243 81.034 149.222 81.034 149.196Z" fill="#201600"/>
<path d="M94.2966 177.857L90.8441 174.554L91.2344 178.908L94.2966 177.857Z" fill="#548F86"/>
<path d="M64.4702 176.551L69.2436 173.864L68.403 178.052L64.4702 176.551Z" fill="#548F86"/>
<path d="M79.0607 175.965L79.9914 180.288L77.6347 180.153L79.0607 175.965Z" fill="#548F86"/>
<path d="M88.3223 192.913V189.64C88.3203 189.562 88.334 189.484 88.3625 189.412C88.391 189.339 88.4338 189.272 88.4884 189.216C88.543 189.161 88.6082 189.116 88.6802 189.086C88.7522 189.055 88.8296 189.04 88.9078 189.04H91.8198C91.9335 189.04 92.046 189.062 92.1508 189.106C92.2556 189.15 92.3506 189.215 92.4302 189.296C92.5099 189.377 92.5726 189.473 92.6147 189.578C92.6568 189.684 92.6775 189.797 92.6755 189.91V193.093L88.3223 192.913Z" fill="#8D8981" stroke="#8C8880" stroke-width="0.264557" stroke-miterlimit="10"/>
<path d="M88.3222 213.042V193.093C88.9854 193.47 89.7355 193.669 90.4987 193.669C91.262 193.669 92.0121 193.47 92.6753 193.093V213.177C92.6773 213.253 92.664 213.329 92.6362 213.4C92.6085 213.471 92.5668 213.536 92.5136 213.59C92.4604 213.645 92.3969 213.688 92.3267 213.718C92.2565 213.747 92.1811 213.763 92.1049 213.762H89.1027C89.0027 213.773 88.9015 213.762 88.806 213.731C88.7105 213.699 88.6228 213.648 88.5489 213.579C88.4749 213.511 88.4165 213.428 88.3774 213.335C88.3383 213.243 88.3194 213.143 88.3222 213.042Z" fill="#201600" stroke="#201600" stroke-width="0.264557" stroke-miterlimit="10"/>
<path d="M98.7997 175.47L96.353 170.426L100.046 174.644L98.7997 175.47Z" fill="#548F86"/>
<path d="M58.4959 172.168L60.1921 171.867C60.2875 171.868 60.3805 171.897 60.4592 171.951C60.538 172.005 60.599 172.081 60.6344 172.169C60.6698 172.258 60.6781 172.355 60.6581 172.448C60.6382 172.542 60.5909 172.627 60.5224 172.693L58.7061 173.083L58.4959 172.168Z" fill="#201600" stroke="#201600" stroke-width="0.264557" stroke-miterlimit="10" stroke-linecap="round"/>
<path d="M55.1786 186.848C55.5102 186.848 55.779 186.579 55.779 186.248C55.779 185.916 55.5102 185.647 55.1786 185.647C54.8469 185.647 54.5781 185.916 54.5781 186.248C54.5781 186.579 54.8469 186.848 55.1786 186.848Z" fill="#201600"/>
</svg>
