<svg width="68" height="68" viewBox="0 0 68 68" fill="none" xmlns="http://www.w3.org/2000/svg">
<path d="M67 35.0234H34.8791V67.1443H67V35.0234Z" fill="#E29265"/>
<path d="M34.8791 37.9725H67" stroke="#F3D2C9" stroke-miterlimit="10"/>
<path d="M34.8791 44.6829H67" stroke="#F3D2C9" stroke-miterlimit="10"/>
<path d="M34.8791 51.1607H67" stroke="#F3D2C9" stroke-miterlimit="10"/>
<path d="M34.8791 57.4056H67" stroke="#F3D2C9" stroke-miterlimit="10"/>
<path d="M34.8791 64.1161H67" stroke="#F3D2C9" stroke-miterlimit="10"/>
<path d="M37.7746 35.0234V67.1443" stroke="#F3D2C9" stroke-miterlimit="10"/>
<path d="M42.9256 35.0234V67.1443" stroke="#F3D2C9" stroke-miterlimit="10"/>
<path d="M48.0789 35.0234V67.1443" stroke="#F3D2C9" stroke-miterlimit="10"/>
<path d="M53.2299 35.0234V67.1443" stroke="#F3D2C9" stroke-miterlimit="10"/>
<path d="M58.3832 35.0234V67.1443" stroke="#F3D2C9" stroke-miterlimit="10"/>
<path d="M63.5365 35.0234V67.1443" stroke="#F3D2C9" stroke-miterlimit="10"/>
<path d="M32.1305 0.0144672H0.00963211V32.1354H32.1305V0.0144672Z" fill="#B0AFB0"/>
<path d="M64.009 -1.90735e-06H31.8881V32.1209H64.009V-1.90735e-06Z" fill="#B0AFB0"/>
<path d="M32.1209 32.0604H0V64.1813H32.1209V32.0604Z" fill="#B0AFB0"/>
<path d="M67 67.1443H34.8791V41.01V35.0234H67V40.7144V67.1443Z" stroke="#6E4636" stroke-width="0.5" stroke-miterlimit="10"/>
<path d="M34.8791 41.28H67" stroke="#704736" stroke-width="0.5" stroke-miterlimit="10"/>
<path d="M34.8791 47.774H67" stroke="#704736" stroke-width="0.5" stroke-miterlimit="10"/>
<path d="M34.8791 54.0376H67" stroke="#704736" stroke-width="0.5" stroke-miterlimit="10"/>
<path d="M34.8791 60.5316H67" stroke="#704736" stroke-width="0.5" stroke-miterlimit="10"/>
<path d="M41.1101 54.0376V60.5316" stroke="#704736" stroke-width="0.5" stroke-miterlimit="10"/>
<path d="M41.1101 41.28V47.7787" stroke="#704736" stroke-width="0.5" stroke-miterlimit="10"/>
<path d="M60.9738 60.5316V67.1443" stroke="#704736" stroke-width="0.5" stroke-miterlimit="10"/>
<path d="M60.9738 47.774V54.0376" stroke="#704736" stroke-width="0.5" stroke-miterlimit="10"/>
<path d="M60.9738 35.0234V41.28" stroke="#704736" stroke-width="0.5" stroke-miterlimit="10"/>
<path d="M54.3006 54.0376V60.5921" stroke="#704736" stroke-width="0.5" stroke-miterlimit="10"/>
<path d="M54.3006 41.28V47.774" stroke="#704736" stroke-width="0.5" stroke-miterlimit="10"/>
<path d="M48.4234 60.5316V67.1443" stroke="#704736" stroke-width="0.5" stroke-miterlimit="10"/>
<path d="M48.4234 47.774V54.0376" stroke="#704736" stroke-width="0.5" stroke-miterlimit="10"/>
<path d="M48.4234 35.0234V41.28" stroke="#704736" stroke-width="0.5" stroke-miterlimit="10"/>
</svg>
